<?xml version="1.0" encoding="utf-8"?>
<!-- Generator: Adobe Illustrator 27.5.0, SVG Export Plug-In . SVG Version: 6.00 Build 0)  -->
<svg version="1.1" xmlns="http://www.w3.org/2000/svg" xmlns:xlink="http://www.w3.org/1999/xlink" x="0px" y="0px"
	 viewBox="0 0 500 500" style="enable-background:new 0 0 500 500;" xml:space="preserve">
<g id="Background_simple">
	<g>
		<path style="fill:#92E3A9;" d="M402.748,133.616c-1.582-2.785-2.872-5.764-4.102-8.726
			c-12.574-30.273-27.089-56.322-59.635-68.423c-54.354-20.209-71.078,9.756-107.314,20.208
			c-36.236,10.453-48.779-15.331-80.834-15.331c-32.055,0-50.87,21.602-51.567,41.114c-0.697,19.512,4.878,33.448-34.842,58.535
			c-39.72,25.086-36.236,60.626-22.996,85.015c13.24,24.389,43.901,36.236,82.924,44.598
			c39.023,8.362,118.464,75.956,205.569,55.051c87.105-20.905,69.684-74.562,93.377-93.377
			c23.693-18.815,57.141-43.204,35.54-79.439c-5.679-9.528-13.061-18.097-23.522-22.393c-9.328-3.83-21.162-3.051-28.33-10.857
			C405.35,137.777,403.963,135.754,402.748,133.616z"/>
		<path style="opacity:0.7;fill:#FFFFFF;" d="M402.748,133.616c-1.582-2.785-2.872-5.764-4.102-8.726
			c-12.574-30.273-27.089-56.322-59.635-68.423c-54.354-20.209-71.078,9.756-107.314,20.208
			c-36.236,10.453-48.779-15.331-80.834-15.331c-32.055,0-50.87,21.602-51.567,41.114c-0.697,19.512,4.878,33.448-34.842,58.535
			c-39.72,25.086-36.236,60.626-22.996,85.015c13.24,24.389,43.901,36.236,82.924,44.598
			c39.023,8.362,118.464,75.956,205.569,55.051c87.105-20.905,69.684-74.562,93.377-93.377
			c23.693-18.815,57.141-43.204,35.54-79.439c-5.679-9.528-13.061-18.097-23.522-22.393c-9.328-3.83-21.162-3.051-28.33-10.857
			C405.35,137.777,403.963,135.754,402.748,133.616z"/>
	</g>
	<g>
		<g id="freepik--background-simple--inject-45">
			<path style="fill:#92E3A9;" d="M441.383,113.162l-1.423-4.052c-11.985-34.158-41.387-59.436-76.897-64.588
				c-4.57-0.667-9.182-0.993-13.8-0.975c-33.299,0.105-66.085,18.363-84.077,46.797c-10.626,16.751-16.878,37.219-32.737,48.919
				c-20.636,15.227-49.128,9.847-73.808,3.836c-24.68-6.011-53.238-11.333-73.805,3.992c-12.889,9.598-19.723,25.661-22.205,41.624
				c-6.576,42.255,14.697,85.756,47.793,112.121c33.096,26.365,76.368,37.219,118.621,37.58
				c59.16,0.506,119.803-19.552,162.48-61.261C434.2,235.445,456.299,171.054,441.383,113.162z"/>
		</g>
		<g id="freepik--background-simple--inject-45_1_" style="opacity:0.7;">
			<path style="fill:#FFFFFF;" d="M441.383,113.162l-1.423-4.052c-11.985-34.158-41.387-59.436-76.897-64.588
				c-4.57-0.667-9.182-0.993-13.8-0.975c-33.299,0.105-66.085,18.363-84.077,46.797c-10.626,16.751-16.878,37.219-32.737,48.919
				c-20.636,15.227-49.128,9.847-73.808,3.836c-24.68-6.011-53.238-11.333-73.805,3.992c-12.889,9.598-19.723,25.661-22.205,41.624
				c-6.576,42.255,14.697,85.756,47.793,112.121c33.096,26.365,76.368,37.219,118.621,37.58
				c59.16,0.506,119.803-19.552,162.48-61.261C434.2,235.445,456.299,171.054,441.383,113.162z"/>
		</g>
	</g>
</g>
<g id="Shadow">
	<path style="opacity:0.3;fill:#263238;" d="M459.181,431.433l-43.214-99.009c-0.594-1.361-1.661-2.648-3.077-3.812
		c-1.408-1.157-3.163-2.192-5.147-3.057c-1.975-0.861-4.18-1.556-6.5-2.034c-2.315-0.477-4.75-0.74-7.194-0.74H94.973
		c-2.444,0-4.879,0.263-7.194,0.74c-2.32,0.478-4.525,1.172-6.5,2.034c-1.984,0.865-3.739,1.901-5.147,3.057
		c-1.416,1.163-2.483,2.451-3.077,3.812l-43.214,99.009c-0.938,2.148-1.197,4.213-0.856,6.106c0.076,0.421,0.19,0.831,0.325,1.233
		c-0.013-0.035-0.031-0.066-0.043-0.101c2.437,6.777,10.543,8.76,17.061,8.763c0,0,384.768,0.002,396.673-0.001
		c5.52-0.079,11.688-1.427,15.27-5.95c0.057-0.075,0.905-1.328,1.103-1.617l0.382-1.194c-0.02,0.064-0.047,0.126-0.069,0.19
		c0.149-0.431,0.27-0.871,0.351-1.323C460.378,435.646,460.119,433.581,459.181,431.433z"/>
</g>
<g id="Device">
	<g>
		<polygon style="fill:#808080;" points="70.143,400.833 70.143,400.833 421.802,400.833 421.802,400.833 421.802,400.833 		"/>
		<g>
			<g>
				<g>
					<g>
						<g>
							<path style="fill:#171E22;" d="M468.253,400.529c0.045-0.109,0.08-0.221,0.121-0.331c-0.151,0.411-0.33,0.813-0.538,1.203
								c0.035-0.066,0.076-0.131,0.109-0.198C468.056,400.982,468.159,400.757,468.253,400.529z"/>
							<g>
								<path style="fill:#263238;" d="M467.911,392.341l-44.741-102.507c-0.615-1.409-1.719-2.742-3.186-3.947
									c-1.458-1.198-3.275-2.27-5.329-3.165c-2.045-0.892-4.328-1.611-6.73-2.106c-2.397-0.494-4.918-0.767-7.449-0.767H90.836
									c-2.531,0-5.052,0.273-7.448,0.767c-2.403,0.495-4.685,1.214-6.73,2.106c-2.054,0.896-3.871,1.968-5.329,3.165
									c-1.466,1.205-2.571,2.538-3.186,3.947L23.402,392.341c-0.971,2.224-1.239,4.362-0.886,6.322
									c0.078,0.436,0.197,0.86,0.337,1.277c-0.013-0.036-0.032-0.068-0.045-0.104l5.04,15.753
									c0.945,2.975,3.302,5.238,6.054,6.676l-0.003-0.009c3.46,1.815,7.408,2.449,11.292,2.467
									c1.835-0.034,400.582,0.063,402.158-0.032c3.139-0.103,6.273-0.699,9.138-1.977l-0.001,0.002
									c2.222-1.007,4.248-2.465,5.643-4.453c0.146-0.209,0.284-0.421,0.413-0.638c0.129-0.216,0.249-0.436,0.361-0.659
									c0.112-0.223,0.214-0.45,0.308-0.68c0.094-0.23,0.178-0.462,0.254-0.698l5.04-15.753c-0.021,0.066-0.049,0.131-0.072,0.197
									c0.154-0.446,0.279-0.902,0.364-1.37C469.151,396.703,468.882,394.565,467.911,392.341z M421.802,400.833H70.143h0
									l15.901-46.904l0.245-0.724l0.648-1.913l0.485-1.431l0.38-1.12l0.303-0.894l0.23-0.68l0.149-0.44l0.044-0.128l20.416-60.22
									l0.615-1.814h0c-0.623,1.837-20.383,60.122-21.031,62.034c-0.801,2.362-1.683,4.963-2.485,7.33l-15.901,46.904
									L421.802,400.833l-39.89-116.268H109.662l272.251-0.341v0L421.802,400.833L421.802,400.833z M468.253,400.529
									c-0.094,0.228-0.196,0.453-0.308,0.675c-0.034,0.067-0.074,0.131-0.109,0.198c0.209-0.39,0.388-0.792,0.538-1.203
									C468.333,400.308,468.297,400.42,468.253,400.529z"/>
							</g>
							<g>
								<path style="opacity:0.2;fill:#FFFFFF;" d="M333.005,424.191c-49.856,0-108.511-0.006-159.817-0.011l-98.74-0.008
									c-19.682,0-28.982,0.002-29.266,0.008c-4.31-0.02-8.025-0.829-11.03-2.406c-0.026-0.014-0.054-0.025-0.081-0.034
									c-2.87-1.521-4.895-3.762-5.706-6.316l-3.66-11.439c4.621,5.003,12.92,5.463,15.767,5.464c0,0,405.744,0.001,410.688-0.001
									c4.874-0.069,11.381-1.108,15.513-5.528c-0.46,1.436-0.938,2.901-1.403,4.325c-0.662,2.029-1.297,3.974-1.811,5.622
									c-0.609,1.956-0.892,2.801-1.774,4.091c-1.225,1.745-3.032,3.174-5.371,4.243c-0.016,0.006-0.03,0.012-0.046,0.019
									c-2.628,1.173-5.635,1.822-8.935,1.93C446.602,424.178,409.209,424.191,333.005,424.191z"/>
								<path style="fill:#263238;" d="M465.525,405.71c-0.255,0.787-0.513,1.575-0.767,2.355c-0.669,2.049-1.3,3.984-1.816,5.641
									c-0.618,1.985-0.875,2.733-1.697,3.935c-1.172,1.67-2.905,3.038-5.151,4.065c-0.015,0.006-0.031,0.012-0.046,0.019
									c-2.565,1.144-5.503,1.777-8.743,1.884c-0.898,0.028-38.051,0.042-113.584,0.042c-49.943,0-108.825-0.006-160.329-0.011
									c-40.033-0.004-75.608-0.008-99.063-0.008c-25.758,0-28.977,0.004-29.132,0.008c-4.236-0.019-7.867-0.808-10.794-2.344
									c-0.035-0.018-0.071-0.035-0.108-0.049c-2.729-1.454-4.65-3.576-5.416-5.989l-3.048-9.527
									c3.426,2.73,8.51,4.256,14.64,4.259l233.867,0.001c89.311,0,171.333,0,176.836-0.002
									C455.581,409.926,461.307,409.079,465.525,405.71 M22.808,399.835l5.04,15.753c0.945,2.975,3.302,5.238,6.054,6.676
									l-0.003-0.009c3.46,1.815,7.408,2.45,11.292,2.467c0.299-0.005,11.168-0.008,29.137-0.008
									c53.629,0,170.628,0.019,259.391,0.019c63.854,0,113.078-0.01,113.63-0.043c3.139-0.103,6.273-0.699,9.138-1.977
									l-0.001,0.002c2.221-1.007,4.248-2.465,5.643-4.453c0.938-1.37,1.24-2.294,1.845-4.235c1.138-3.653,2.87-8.759,4.183-13.025
									c-0.062,0.087-1.125,1.658-1.19,1.743c-3.708,4.683-10.094,6.079-15.809,6.16c-5.488,0.002-87.51,0.002-176.821,0.002
									c-111.275,0-233.867-0.001-233.867-0.001C33.724,408.905,25.331,406.851,22.808,399.835L22.808,399.835z M468.158,401.003
									h0.005H468.158z"/>
							</g>
							<path style="fill:#92E3A9;" d="M416.972,323.147c-0.066-0.165-0.186-0.322-0.346-0.466c-0.16-0.143-0.361-0.272-0.589-0.38
								c-0.228-0.108-0.482-0.197-0.751-0.258c-0.268-0.061-0.55-0.096-0.832-0.097c-0.281,0.001-0.536,0.036-0.756,0.097
								c-0.22,0.061-0.405,0.149-0.547,0.258c-0.142,0.108-0.241,0.237-0.288,0.38c-0.047,0.143-0.043,0.301,0.021,0.466
								l9.783,25.093c0.073,0.186,0.202,0.363,0.374,0.525s0.387,0.307,0.631,0.429c0.244,0.122,0.516,0.221,0.802,0.29
								c0.286,0.068,0.586,0.106,0.886,0.106s0.57-0.038,0.802-0.106c0.232-0.068,0.426-0.167,0.573-0.29
								c0.147-0.122,0.247-0.267,0.293-0.429c0.045-0.161,0.035-0.339-0.04-0.525L416.972,323.147z"/>
						</g>
					</g>
				</g>
			</g>
		</g>
	</g>
	<path style="fill:#92E3A9;" d="M88.53,346.6c-0.801,2.362-1.683,4.963-2.485,7.33l-15.901,46.904h351.659l-39.89-116.268H109.662
		h-0.101v0C108.938,286.402,89.178,344.688,88.53,346.6z"/>
	<g>
		<path style="fill:#FFFFFF;" d="M398.333,353.497l9.339,6.15l-2.64-7.695l-3.963-2.61c-4.473-2.946-6.04-8.778-3.645-13.568
			l1.22-2.44l-2.264-6.598l-3.406,6.813C389.454,340.592,391.757,349.167,398.333,353.497z"/>
		<polygon style="fill:#FFFFFF;" points="411.629,371.663 367.175,400.833 379.593,400.833 413.542,377.769 		"/>
		<path style="fill:#FFFFFF;" d="M107.052,293.146l3.794-2.572c2.317-1.57,4.159-3.639,5.434-6.008h-6.112
			c-0.118,0.128-0.217,0.27-0.34,0.393C109.168,286.905,108.207,289.74,107.052,293.146z"/>
		<path style="fill:#FFFFFF;" d="M145.626,298.324l-16.24,32.042c-0.772,1.522-2.177,2.579-3.854,2.9
			c-1.677,0.321-3.372-0.146-4.651-1.277l-6.289-5.571c-3.813-3.378-9.143-4.361-13.91-2.568l-4.63,1.742
			c-1.497,4.416-2.886,8.513-4.037,11.909l14.814,45.923l-24.423-17.578l-2.169,6.399l41.353,28.59h9.429l-17.381-12.51
			l-18.42-57.102l7.217-2.715c3.038-1.142,6.431-0.516,8.86,1.635l6.289,5.572c2.442,2.162,5.681,3.052,8.881,2.44
			c3.203-0.611,5.885-2.629,7.36-5.538l14.746-29.093l6.523,0.466l49.648-18.813l5.151,20.281
			c1.589,6.256-0.134,12.768-4.607,17.421l-26.614,27.679c-2.035,2.117-3.022,5.006-2.709,7.925
			c0.314,2.921,1.893,5.533,4.332,7.169l4.303,2.886l-27.878,32.298h6.572l25.469-29.507l29.769,19.967l44.279-11.186l-2.584,17.57
			l74-1.104l2.459,4.26h5.744l-19.732-34.179c2.593,0.291,5.145,0.965,7.542,2.048l14.01,6.327
			c3.308,1.495,7.004,1.308,10.143-0.512c3.139-1.819,5.141-4.933,5.491-8.544l2.822-29.165c0.648-6.695-3.272-13.088-9.532-15.547
			l-6.365-2.501l-42.524-12.989c-0.542-0.166-0.638-0.599-0.647-0.841c-0.009-0.244,0.054-0.683,0.584-0.888l37.41-14.524
			l7.101-4.952h-8.697l-0.76,0.53l-36.854,14.308c-2.374,0.923-3.848,3.164-3.753,5.71c0.094,2.546,1.729,4.671,4.166,5.415
			l42.247,12.897l6.275,2.465c4.203,1.651,6.834,5.942,6.4,10.437l-2.822,29.165c-0.193,1.995-1.299,3.715-3.032,4.72
			c-1.734,1.003-3.777,1.108-5.602,0.283l-14.01-6.327c-6.175-2.789-13.191-3.412-19.762-1.751l-93.063,23.511l-36.394-24.41
			c-1.214-0.814-2.001-2.116-2.157-3.57c-0.156-1.454,0.336-2.892,1.349-3.947l26.614-27.679c5.673-5.9,7.857-14.159,5.842-22.092
			l-1.999-7.871l42.795,0.528l10.81-12.323h-6.617l-6.421,7.32l-41.834-0.517l-1.728-6.804h-17.411l-37.953,14.382L145.626,298.324z
			 M268.028,378.788l45.711-11.548c1.061-0.268,2.138-0.444,3.22-0.57l14.415,24.969l-65.379,0.975L268.028,378.788z"/>
	</g>
	<g style="opacity:0.4;">
		<polygon points="381.912,284.565 368.923,284.565 408.812,400.833 421.802,400.833 		"/>
		<path style="opacity:0.6;" d="M88.53,346.6c0.648-1.912,20.408-60.197,21.031-62.034v0H96.672h-0.101v0
			c-0.623,1.837-20.383,60.122-21.031,62.034c-0.801,2.362-1.683,4.963-2.485,7.33l-15.901,46.904h12.99l15.901-46.904
			C86.847,351.563,87.729,348.962,88.53,346.6z"/>
	</g>
	<g>
		<path style="opacity:0.9;" d="M60.726,341.97c0.006,0.001,0.012,0.002,0.018,0.003c0.007,0.002,0.016,0.002,0.023,0.004
			c0.315,0.064,0.639,0.12,0.974,0.165c0.013,0.002,0.026,0.004,0.039,0.005c0.344,0.045,0.698,0.08,1.061,0.104
			c0.011,0.001,0.023,0.001,0.035,0.002c0.369,0.023,0.748,0.036,1.136,0.037c0.388,0,0.777-0.012,1.164-0.036c0,0,0.001,0,0.001,0
			c0.013-0.001,0.025-0.001,0.038-0.002c0.387-0.024,0.774-0.059,1.158-0.105c0.003,0,0.006-0.001,0.008-0.001
			c0.036-0.004,0.072-0.012,0.108-0.016c0.696-0.087,1.382-0.21,2.054-0.364c0.041-0.009,0.083-0.016,0.123-0.025
			c0.004-0.001,0.008-0.002,0.012-0.003c0.004-0.001,0.007-0.002,0.011-0.003c0.08-0.019,0.153-0.049,0.233-0.069
			c1.408-0.352,2.748-0.831,3.942-1.428c1.261-0.63,2.365-1.379,3.238-2.208c0.87-0.826,1.51-1.731,1.848-2.678
			c0.336-0.942,0.34-1.836,0.06-2.646c-0.278-0.807-0.837-1.532-1.63-2.139c-0.79-0.606-1.813-1.095-3.023-1.433
			c-1.207-0.337-2.602-0.525-4.139-0.526c-0.194,0-0.387,0.012-0.58,0.017c-0.184,0.006-0.368,0.006-0.551,0.016
			c-0.152,0.009-0.303,0.026-0.455,0.039c-0.102,0.01-0.204,0.017-0.305,0.027c-0.133,0.013-0.267,0.02-0.399,0.035
			c-0.118,0.014-0.236,0.033-0.353,0.051c-0.259,0.034-0.519,0.068-0.775,0.112c-0.001,0-0.003,0-0.004,0.001
			c-0.024,0.004-0.048,0.01-0.072,0.014c-0.346,0.061-0.69,0.129-1.029,0.207c-0.003,0.001-0.006,0.001-0.009,0.002
			c-0.079,0.018-0.151,0.047-0.229,0.066c-0.261,0.063-0.51,0.148-0.766,0.22c-0.381,0.108-0.772,0.2-1.139,0.328
			c-0.048,0.017-0.091,0.039-0.138,0.057c-0.609,0.218-1.198,0.459-1.758,0.726c-0.025,0.012-0.055,0.021-0.08,0.033
			c-0.017,0.008-0.032,0.017-0.049,0.026c-0.169,0.083-0.331,0.171-0.494,0.258c-0.148,0.077-0.297,0.155-0.44,0.236
			c-0.039,0.022-0.076,0.047-0.115,0.07c-0.216,0.126-0.431,0.253-0.636,0.387c-0.049,0.032-0.096,0.065-0.143,0.098
			c-0.221,0.148-0.438,0.299-0.643,0.456c-0.061,0.047-0.118,0.095-0.176,0.143c-0.193,0.153-0.384,0.306-0.56,0.466
			c-0.127,0.115-0.239,0.235-0.357,0.353c-0.242,0.243-0.466,0.491-0.668,0.747c-0.186,0.235-0.355,0.475-0.503,0.72
			c-0.026,0.043-0.059,0.085-0.084,0.128c-0.025,0.044-0.045,0.09-0.066,0.134c-0.083,0.155-0.161,0.311-0.228,0.468
			c-0.014,0.032-0.033,0.063-0.046,0.095c-0.381,0.946-0.43,1.85-0.189,2.676c0.242,0.83,0.775,1.58,1.555,2.211
			c0.782,0.633,1.811,1.146,3.04,1.502c0.274,0.079,0.561,0.148,0.854,0.211C60.661,341.953,60.692,341.963,60.726,341.97z
			 M59.379,339.289c-0.049,0-0.096-0.003-0.141-0.009c-0.045-0.006-0.087-0.014-0.127-0.026c-0.04-0.011-0.076-0.025-0.109-0.041
			c-0.033-0.016-0.063-0.035-0.089-0.056c-0.024-0.021-0.043-0.044-0.059-0.068c-0.016-0.024-0.027-0.05-0.034-0.077
			c-0.007-0.027-0.01-0.055-0.008-0.083c0.002-0.029,0.009-0.058,0.02-0.088l2.725-6.928c0.011-0.027,0.027-0.055,0.046-0.083
			c0.02-0.027,0.044-0.054,0.072-0.08c0.028-0.026,0.059-0.051,0.092-0.074c0.034-0.023,0.07-0.044,0.109-0.063
			c0.042-0.02,0.085-0.038,0.13-0.054c0.045-0.016,0.092-0.029,0.139-0.04c0.047-0.011,0.096-0.019,0.144-0.025
			c0.048-0.006,0.097-0.009,0.145-0.009h11.345c0.048,0,0.094,0.003,0.138,0.009c0.044,0.006,0.086,0.014,0.125,0.025
			c0.039,0.011,0.076,0.024,0.109,0.04c0.033,0.016,0.063,0.034,0.09,0.054c0.027,0.019,0.049,0.04,0.067,0.063
			c0.018,0.023,0.031,0.048,0.039,0.074c0.008,0.026,0.012,0.053,0.012,0.08c-0.001,0.027-0.006,0.055-0.016,0.083l-2.528,6.928
			c-0.011,0.03-0.026,0.059-0.046,0.088c-0.02,0.029-0.044,0.057-0.072,0.083s-0.06,0.052-0.095,0.077
			c-0.035,0.024-0.074,0.047-0.116,0.068c-0.042,0.021-0.086,0.039-0.132,0.056c-0.046,0.016-0.093,0.03-0.141,0.041
			c-0.048,0.011-0.097,0.02-0.146,0.026c-0.049,0.006-0.099,0.009-0.147,0.009H59.379z"/>
		<path style="fill:#92E3A9;" d="M71.069,339.28c0.049-0.006,0.098-0.014,0.146-0.026c0.048-0.011,0.095-0.025,0.141-0.041
			c0.046-0.016,0.09-0.035,0.132-0.056c0.042-0.021,0.081-0.044,0.116-0.068c0.035-0.024,0.067-0.05,0.095-0.077
			s0.052-0.055,0.072-0.083c0.02-0.029,0.035-0.058,0.046-0.088l2.528-6.928c0.01-0.027,0.015-0.055,0.016-0.083
			c0.001-0.027-0.003-0.054-0.012-0.08c-0.008-0.026-0.022-0.051-0.039-0.074c-0.018-0.023-0.04-0.044-0.067-0.063
			c-0.026-0.02-0.056-0.038-0.09-0.054c-0.033-0.016-0.07-0.029-0.109-0.04c-0.039-0.011-0.081-0.019-0.125-0.025
			c-0.044-0.006-0.09-0.009-0.138-0.009H62.436c-0.048,0-0.097,0.003-0.145,0.009c-0.048,0.006-0.097,0.014-0.144,0.025
			c-0.047,0.011-0.094,0.024-0.139,0.04c-0.045,0.016-0.089,0.034-0.13,0.054c-0.039,0.019-0.075,0.04-0.109,0.063
			c-0.034,0.023-0.065,0.048-0.092,0.074c-0.028,0.026-0.052,0.053-0.072,0.08c-0.02,0.027-0.036,0.055-0.046,0.083l-2.725,6.928
			c-0.012,0.03-0.018,0.059-0.02,0.088c-0.002,0.029,0.001,0.057,0.008,0.083c0.007,0.027,0.019,0.052,0.034,0.077
			c0.016,0.024,0.035,0.047,0.059,0.068c0.026,0.021,0.056,0.039,0.089,0.056c0.033,0.016,0.07,0.03,0.109,0.041
			c0.04,0.011,0.082,0.02,0.127,0.026c0.045,0.006,0.092,0.009,0.141,0.009h11.542C70.97,339.289,71.02,339.286,71.069,339.28z
			 M70.525,338.402H60.448h0l0.452-1.159l1.186-3.04l0.002-0.006l0.02-0.052l0.027-0.069l0.035-0.09l0.047-0.12l0.07-0.179
			l0.18-0.461l0.091-0.232l0.064-0.163l0.054-0.138l0.023-0.06l0.114-0.292h0l0,0h9.943L70.525,338.402L70.525,338.402z"/>
		<polygon points="62.813,332.341 62.813,332.341 62.813,332.342 62.699,332.634 62.675,332.693 62.622,332.831 62.558,332.995 
			62.467,333.227 62.288,333.687 62.218,333.866 62.171,333.986 62.136,334.076 62.109,334.146 62.109,334.145 62.089,334.197 
			62.089,334.198 62.086,334.203 60.9,337.243 60.448,338.402 70.525,338.402 70.525,338.402 72.756,332.341 		"/>
	</g>
</g>
<g id="Clouds">
	<g>
		<path style="fill:#92E3A9;" d="M419.618,146.889h-145.72c0,0,4.032-2.88,7.488-5.184c3.456-2.304,9.216,0,12.095,0
			c2.88,0,2.88-3.456,9.216-7.488c6.336-4.032,13.247,2.304,18.431,1.152c5.184-1.152,2.304-9.215,8.639-13.247
			c6.336-4.032,8.064,2.304,14.399-1.728c6.336-4.032,0-20.735,23.615-20.159c23.615,0.576,24.767,16.703,24.767,16.703
			c17.279,7.488,8.64,14.975,10.943,17.855c2.304,2.88,5.184,0,11.52,3.456C421.346,141.706,419.618,146.889,419.618,146.889z"/>
		<path style="opacity:0.9;fill:#FFFFFF;" d="M419.618,146.889h-145.72c0,0,4.032-2.88,7.488-5.184c3.456-2.304,9.216,0,12.095,0
			c2.88,0,2.88-3.456,9.216-7.488c6.336-4.032,13.247,2.304,18.431,1.152c5.184-1.152,2.304-9.215,8.639-13.247
			c6.336-4.032,8.064,2.304,14.399-1.728c6.336-4.032,0-20.735,23.615-20.159c23.615,0.576,24.767,16.703,24.767,16.703
			c17.279,7.488,8.64,14.975,10.943,17.855c2.304,2.88,5.184,0,11.52,3.456C421.346,141.706,419.618,146.889,419.618,146.889z"/>
	</g>
	<g>
		<path style="fill:#92E3A9;" d="M202.874,109.077H100.029c0,0,2.845-2.033,5.285-3.659c2.439-1.626,6.504,0,8.536,0
			c2.033,0,2.033-2.439,6.504-5.285c4.472-2.845,9.35,1.626,13.008,0.813c3.659-0.813,1.626-6.504,6.098-9.35
			c4.471-2.845,5.691,1.626,10.163-1.219c4.472-2.846,0-14.634,16.667-14.228c16.667,0.406,17.48,11.789,17.48,11.789
			c12.195,5.285,6.098,10.569,7.724,12.602c1.626,2.033,3.659,0,8.13,2.439C204.094,105.418,202.874,109.077,202.874,109.077z"/>
		<path style="opacity:0.7;fill:#FFFFFF;" d="M202.874,109.077H100.029c0,0,2.845-2.033,5.285-3.659c2.439-1.626,6.504,0,8.536,0
			c2.033,0,2.033-2.439,6.504-5.285c4.472-2.845,9.35,1.626,13.008,0.813c3.659-0.813,1.626-6.504,6.098-9.35
			c4.471-2.845,5.691,1.626,10.163-1.219c4.472-2.846,0-14.634,16.667-14.228c16.667,0.406,17.48,11.789,17.48,11.789
			c12.195,5.285,6.098,10.569,7.724,12.602c1.626,2.033,3.659,0,8.13,2.439C204.094,105.418,202.874,109.077,202.874,109.077z"/>
	</g>
	<g>
		<path style="fill:#92E3A9;" d="M192.064,219.376h-76.571c0,0,2.119-1.514,3.935-2.724c1.816-1.21,4.842,0,6.356,0
			c1.513,0,1.513-1.816,4.842-3.934c3.329-2.118,6.961,1.211,9.685,0.605c2.724-0.605,1.211-4.842,4.54-6.961
			c3.329-2.118,4.237,1.211,7.566-0.908c3.329-2.118,0-10.895,12.409-10.593c12.409,0.303,13.014,8.777,13.014,8.777
			c9.079,3.935,4.54,7.869,5.75,9.382c1.211,1.513,2.724,0,6.053,1.816C192.972,216.652,192.064,219.376,192.064,219.376z"/>
		<path style="opacity:0.9;fill:#FFFFFF;" d="M192.064,219.376h-76.571c0,0,2.119-1.514,3.935-2.724c1.816-1.21,4.842,0,6.356,0
			c1.513,0,1.513-1.816,4.842-3.934c3.329-2.118,6.961,1.211,9.685,0.605c2.724-0.605,1.211-4.842,4.54-6.961
			c3.329-2.118,4.237,1.211,7.566-0.908c3.329-2.118,0-10.895,12.409-10.593c12.409,0.303,13.014,8.777,13.014,8.777
			c9.079,3.935,4.54,7.869,5.75,9.382c1.211,1.513,2.724,0,6.053,1.816C192.972,216.652,192.064,219.376,192.064,219.376z"/>
	</g>
</g>
<g id="Buildings">
	<g>
		<g>
			
				<polygon style="fill:#263238;stroke:#263238;stroke-width:1.0551;stroke-linecap:round;stroke-linejoin:round;stroke-miterlimit:10;" points="
				256.463,341.889 248.098,346.574 252.448,346.908 257.467,344.566 			"/>
			
				<polygon style="fill:#FFFFFF;stroke:#263238;stroke-width:1.0551;stroke-linecap:round;stroke-linejoin:round;stroke-miterlimit:10;" points="
				260.814,364.643 279.552,356.947 279.552,344.231 261.148,350.924 			"/>
			
				<polygon style="fill:#FFFFFF;stroke:#263238;stroke-width:1.0551;stroke-linecap:round;stroke-linejoin:round;stroke-miterlimit:10;" points="
				252.448,346.908 252.448,357.282 260.814,364.643 261.148,350.924 257.467,344.566 			"/>
			
				<polygon style="fill:#263238;stroke:#263238;stroke-width:1.0551;stroke-linecap:round;stroke-linejoin:round;stroke-miterlimit:10;" points="
				276.206,335.197 256.463,341.889 262.821,354.27 283.276,346.387 			"/>
			
				<line style="fill:none;stroke:#FFFFFF;stroke-width:0.5276;stroke-linecap:round;stroke-linejoin:round;stroke-miterlimit:10;" x1="264.602" y1="350.969" x2="265.164" y2="351.928"/>
			
				<line style="fill:none;stroke:#FFFFFF;stroke-width:0.5276;stroke-linecap:round;stroke-linejoin:round;stroke-miterlimit:10;" x1="259.475" y1="342.224" x2="263.881" y2="349.739"/>
			
				<line style="fill:none;stroke:#FFFFFF;stroke-width:0.5276;stroke-linecap:round;stroke-linejoin:round;stroke-miterlimit:10;" x1="262.378" y1="341.168" x2="268.067" y2="350.872"/>
			
				<line style="fill:none;stroke:#FFFFFF;stroke-width:0.5276;stroke-linecap:round;stroke-linejoin:round;stroke-miterlimit:10;" x1="265.281" y1="340.112" x2="270.97" y2="349.816"/>
			
				<line style="fill:none;stroke:#FFFFFF;stroke-width:0.5276;stroke-linecap:round;stroke-linejoin:round;stroke-miterlimit:10;" x1="269.785" y1="341.787" x2="273.873" y2="348.761"/>
			
				<line style="fill:none;stroke:#FFFFFF;stroke-width:0.5276;stroke-linecap:round;stroke-linejoin:round;stroke-miterlimit:10;" x1="268.184" y1="339.057" x2="269.281" y2="340.927"/>
			
				<line style="fill:none;stroke:#FFFFFF;stroke-width:0.5276;stroke-linecap:round;stroke-linejoin:round;stroke-miterlimit:10;" x1="271.087" y1="338.001" x2="276.776" y2="347.705"/>
			
				<line style="fill:none;stroke:#FFFFFF;stroke-width:0.5276;stroke-linecap:round;stroke-linejoin:round;stroke-miterlimit:10;" x1="278.886" y1="345.298" x2="279.679" y2="346.649"/>
			
				<line style="fill:none;stroke:#FFFFFF;stroke-width:0.5276;stroke-linecap:round;stroke-linejoin:round;stroke-miterlimit:10;" x1="275.533" y1="339.578" x2="278.223" y2="344.167"/>
			
				<line style="fill:none;stroke:#FFFFFF;stroke-width:0.5276;stroke-linecap:round;stroke-linejoin:round;stroke-miterlimit:10;" x1="273.99" y1="336.945" x2="275.053" y2="338.758"/>
			
				<polygon style="fill:#263238;stroke:#263238;stroke-width:1.0551;stroke-linecap:round;stroke-linejoin:round;stroke-miterlimit:10;" points="
				254.51,358.923 254.51,351.797 257.281,354.304 257.281,361.43 			"/>
		</g>
		<g>
			
				<polygon style="fill:#263238;stroke:#263238;stroke-width:1.0551;stroke-linecap:round;stroke-linejoin:round;stroke-miterlimit:10;" points="
				255.936,364.047 247.57,368.732 251.92,369.066 256.94,366.724 			"/>
			
				<polygon style="fill:#FFFFFF;stroke:#263238;stroke-width:1.0551;stroke-linecap:round;stroke-linejoin:round;stroke-miterlimit:10;" points="
				260.286,386.801 279.025,379.105 279.025,366.389 260.621,373.082 			"/>
			
				<polygon style="fill:#FFFFFF;stroke:#263238;stroke-width:1.0551;stroke-linecap:round;stroke-linejoin:round;stroke-miterlimit:10;" points="
				251.92,369.066 251.92,379.44 260.286,386.801 260.621,373.082 256.94,366.724 			"/>
			
				<polygon style="fill:#263238;stroke:#263238;stroke-width:1.0551;stroke-linecap:round;stroke-linejoin:round;stroke-miterlimit:10;" points="
				275.679,357.354 255.936,364.047 262.294,376.428 282.749,368.545 			"/>
			
				<line style="fill:none;stroke:#FFFFFF;stroke-width:0.5276;stroke-linecap:round;stroke-linejoin:round;stroke-miterlimit:10;" x1="264.074" y1="373.127" x2="264.636" y2="374.086"/>
			
				<line style="fill:none;stroke:#FFFFFF;stroke-width:0.5276;stroke-linecap:round;stroke-linejoin:round;stroke-miterlimit:10;" x1="258.947" y1="364.382" x2="263.353" y2="371.897"/>
			
				<line style="fill:none;stroke:#FFFFFF;stroke-width:0.5276;stroke-linecap:round;stroke-linejoin:round;stroke-miterlimit:10;" x1="261.85" y1="363.326" x2="267.539" y2="373.03"/>
			
				<line style="fill:none;stroke:#FFFFFF;stroke-width:0.5276;stroke-linecap:round;stroke-linejoin:round;stroke-miterlimit:10;" x1="264.754" y1="362.27" x2="270.442" y2="371.974"/>
			
				<line style="fill:none;stroke:#FFFFFF;stroke-width:0.5276;stroke-linecap:round;stroke-linejoin:round;stroke-miterlimit:10;" x1="269.257" y1="363.945" x2="273.345" y2="370.919"/>
			
				<line style="fill:none;stroke:#FFFFFF;stroke-width:0.5276;stroke-linecap:round;stroke-linejoin:round;stroke-miterlimit:10;" x1="267.656" y1="361.215" x2="268.753" y2="363.085"/>
			
				<line style="fill:none;stroke:#FFFFFF;stroke-width:0.5276;stroke-linecap:round;stroke-linejoin:round;stroke-miterlimit:10;" x1="270.56" y1="360.159" x2="276.248" y2="369.863"/>
			
				<line style="fill:none;stroke:#FFFFFF;stroke-width:0.5276;stroke-linecap:round;stroke-linejoin:round;stroke-miterlimit:10;" x1="278.359" y1="367.456" x2="279.151" y2="368.807"/>
			
				<line style="fill:none;stroke:#FFFFFF;stroke-width:0.5276;stroke-linecap:round;stroke-linejoin:round;stroke-miterlimit:10;" x1="275.006" y1="361.736" x2="277.696" y2="366.324"/>
			
				<line style="fill:none;stroke:#FFFFFF;stroke-width:0.5276;stroke-linecap:round;stroke-linejoin:round;stroke-miterlimit:10;" x1="273.462" y1="359.103" x2="274.525" y2="360.916"/>
			
				<polygon style="fill:#263238;stroke:#263238;stroke-width:1.0551;stroke-linecap:round;stroke-linejoin:round;stroke-miterlimit:10;" points="
				253.983,381.081 253.983,373.955 256.754,376.462 256.754,383.588 			"/>
		</g>
		<g>
			
				<polygon style="fill:#263238;stroke:#263238;stroke-width:1.0551;stroke-linecap:round;stroke-linejoin:round;stroke-miterlimit:10;" points="
				224.549,353.777 216.184,358.461 220.534,358.796 225.553,356.454 			"/>
			
				<polygon style="fill:#FFFFFF;stroke:#263238;stroke-width:1.0551;stroke-linecap:round;stroke-linejoin:round;stroke-miterlimit:10;" points="
				228.899,376.531 247.638,368.835 247.638,356.119 229.234,362.811 			"/>
			
				<polygon style="fill:#FFFFFF;stroke:#263238;stroke-width:1.0551;stroke-linecap:round;stroke-linejoin:round;stroke-miterlimit:10;" points="
				220.534,358.796 220.534,369.169 228.899,376.531 229.234,362.811 225.553,356.454 			"/>
			
				<polygon style="fill:#263238;stroke:#263238;stroke-width:1.0551;stroke-linecap:round;stroke-linejoin:round;stroke-miterlimit:10;" points="
				244.292,347.084 224.549,353.777 230.907,366.158 251.362,358.275 			"/>
			
				<line style="fill:none;stroke:#FFFFFF;stroke-width:0.5276;stroke-linecap:round;stroke-linejoin:round;stroke-miterlimit:10;" x1="232.687" y1="362.857" x2="233.249" y2="363.815"/>
			
				<line style="fill:none;stroke:#FFFFFF;stroke-width:0.5276;stroke-linecap:round;stroke-linejoin:round;stroke-miterlimit:10;" x1="227.561" y1="354.111" x2="231.967" y2="361.627"/>
			
				<line style="fill:none;stroke:#FFFFFF;stroke-width:0.5276;stroke-linecap:round;stroke-linejoin:round;stroke-miterlimit:10;" x1="230.464" y1="353.056" x2="236.153" y2="362.76"/>
			
				<line style="fill:none;stroke:#FFFFFF;stroke-width:0.5276;stroke-linecap:round;stroke-linejoin:round;stroke-miterlimit:10;" x1="233.367" y1="352" x2="239.055" y2="361.704"/>
			
				<line style="fill:none;stroke:#FFFFFF;stroke-width:0.5276;stroke-linecap:round;stroke-linejoin:round;stroke-miterlimit:10;" x1="237.871" y1="353.675" x2="241.959" y2="360.648"/>
			
				<line style="fill:none;stroke:#FFFFFF;stroke-width:0.5276;stroke-linecap:round;stroke-linejoin:round;stroke-miterlimit:10;" x1="236.27" y1="350.944" x2="237.367" y2="352.815"/>
			
				<line style="fill:none;stroke:#FFFFFF;stroke-width:0.5276;stroke-linecap:round;stroke-linejoin:round;stroke-miterlimit:10;" x1="239.173" y1="349.889" x2="244.862" y2="359.593"/>
			
				<line style="fill:none;stroke:#FFFFFF;stroke-width:0.5276;stroke-linecap:round;stroke-linejoin:round;stroke-miterlimit:10;" x1="246.972" y1="357.185" x2="247.764" y2="358.537"/>
			
				<line style="fill:none;stroke:#FFFFFF;stroke-width:0.5276;stroke-linecap:round;stroke-linejoin:round;stroke-miterlimit:10;" x1="243.619" y1="351.466" x2="246.309" y2="356.054"/>
			
				<line style="fill:none;stroke:#FFFFFF;stroke-width:0.5276;stroke-linecap:round;stroke-linejoin:round;stroke-miterlimit:10;" x1="242.076" y1="348.833" x2="243.139" y2="350.646"/>
			
				<polygon style="fill:#263238;stroke:#263238;stroke-width:1.0551;stroke-linecap:round;stroke-linejoin:round;stroke-miterlimit:10;" points="
				222.596,370.81 222.596,363.685 225.367,366.192 225.367,373.318 			"/>
		</g>
	</g>
	<g>
		
			<polygon style="fill:#FFFFFF;stroke:#263238;stroke-width:1.0551;stroke-linecap:round;stroke-linejoin:round;stroke-miterlimit:10;" points="
			244.212,306.421 258.848,295.444 258.848,312.61 244.019,323.181 		"/>
		<g>
			
				<polygon style="fill:#FFFFFF;stroke:#263238;stroke-width:1.0551;stroke-linecap:round;stroke-linejoin:round;stroke-miterlimit:10;" points="
				258.848,295.444 243.806,286.501 244.212,306.421 			"/>
			
				<polygon style="fill:#FFFFFF;stroke:#263238;stroke-width:1.0551;stroke-linecap:round;stroke-linejoin:round;stroke-miterlimit:10;" points="
				247.871,320.335 247.871,315.365 255.596,309.673 255.596,315.05 			"/>
			<g>
				
					<polygon style="fill:#FFFFFF;stroke:#263238;stroke-width:1.0551;stroke-linecap:round;stroke-linejoin:round;stroke-miterlimit:10;" points="
					220.914,242.115 202.43,257.133 224.699,284.061 244.019,254.823 				"/>
				
					<polygon style="fill:#FFFFFF;stroke:#263238;stroke-width:1.0551;stroke-linecap:round;stroke-linejoin:round;stroke-miterlimit:10;" points="
					224.699,269.426 244.019,254.823 244.019,323.181 224.699,335.377 				"/>
				
					<polygon style="fill:#FFFFFF;stroke:#263238;stroke-width:1.0551;stroke-linecap:round;stroke-linejoin:round;stroke-miterlimit:10;" points="
					224.699,335.377 203.152,322.683 202.43,257.133 224.699,269.426 				"/>
				
					<polygon style="fill:#263238;stroke:#263238;stroke-width:1.0551;stroke-linecap:round;stroke-linejoin:round;stroke-miterlimit:10;" points="
					221.4,245.499 207.518,256.869 224.586,266.143 238.896,254.846 				"/>
				
					<polygon style="fill:#FFFFFF;stroke:#263238;stroke-width:1.0551;stroke-linecap:round;stroke-linejoin:round;stroke-miterlimit:10;" points="
					209.587,257.993 224.586,266.143 236.766,256.527 221.4,248.318 				"/>
				<g>
					<polygon style="fill:#263238;" points="217.393,293.039 213.69,291.125 213.69,295.989 217.393,297.903 					"/>
					<polygon style="fill:#263238;" points="217.393,286.987 213.69,285.073 213.69,289.937 217.393,291.851 					"/>
					<polygon style="fill:#263238;" points="217.393,305.142 213.69,303.229 213.69,308.092 217.393,310.006 					"/>
					<polygon style="fill:#263238;" points="217.393,299.091 213.69,297.177 213.69,302.041 217.393,303.955 					"/>
					<polygon style="fill:#263238;" points="208.932,317.736 212.635,319.65 212.635,314.787 208.932,312.873 					"/>
					<polygon style="fill:#263238;" points="212.635,302.683 208.932,300.769 208.932,305.633 212.635,307.547 					"/>
					<polygon style="fill:#263238;" points="212.635,308.735 208.932,306.821 208.932,311.685 212.635,313.599 					"/>
					<polygon style="fill:#263238;" points="217.393,280.936 213.69,279.022 213.69,283.885 217.393,285.799 					"/>
					<polygon style="fill:#263238;" points="217.393,274.884 213.69,272.97 213.69,277.834 217.393,279.748 					"/>
					<polygon style="fill:#263238;" points="207.877,269.965 205.185,268.573 205.185,273.437 207.877,274.829 					"/>
					<polygon style="fill:#263238;" points="207.877,288.12 205.185,286.728 205.185,291.592 207.877,292.984 					"/>
					<polygon style="fill:#263238;" points="207.877,294.172 205.185,292.78 205.185,297.643 207.877,299.035 					"/>
					<polygon style="fill:#263238;" points="207.877,300.224 205.185,298.832 205.185,303.695 207.877,305.087 					"/>
					<polygon style="fill:#263238;" points="207.877,306.275 205.185,304.883 205.185,309.747 207.877,311.139 					"/>
					<polygon style="fill:#263238;" points="207.877,276.017 205.185,274.625 205.185,279.488 207.877,280.88 					"/>
					<polygon style="fill:#263238;" points="217.393,311.194 213.69,309.28 213.69,314.144 217.393,316.058 					"/>
					<polygon style="fill:#263238;" points="212.635,296.632 208.932,294.717 208.932,299.581 212.635,301.495 					"/>
					<polygon style="fill:#263238;" points="213.69,320.196 217.393,322.11 217.393,317.246 213.69,315.332 					"/>
					<polygon style="fill:#263238;" points="207.877,282.068 205.185,280.676 205.185,285.54 207.877,286.932 					"/>
					<polygon style="fill:#263238;" points="207.877,312.327 205.185,310.935 205.185,315.799 207.877,317.191 					"/>
					<polygon style="fill:#263238;" points="222.259,319.762 218.448,317.791 218.448,322.655 222.259,324.626 					"/>
					<polygon style="fill:#263238;" points="218.448,280.293 222.259,282.263 222.259,277.399 218.448,275.429 					"/>
					<polygon style="fill:#263238;" points="218.448,316.603 222.259,318.574 222.259,313.71 218.448,311.74 					"/>
					<polygon style="fill:#263238;" points="218.448,310.552 222.259,312.522 222.259,307.658 218.448,305.688 					"/>
					<polygon style="fill:#263238;" points="218.448,304.5 222.259,306.47 222.259,301.607 218.448,299.636 					"/>
					<polygon style="fill:#263238;" points="207.877,268.777 207.877,264.332 205.185,262.921 205.185,267.384 					"/>
					<polygon style="fill:#263238;" points="207.877,318.379 205.185,316.987 205.185,321.057 207.877,322.546 					"/>
					<polygon style="fill:#263238;" points="218.448,274.241 222.259,276.211 222.259,271.865 218.448,269.868 					"/>
					<polygon style="fill:#263238;" points="218.448,323.843 218.448,328.391 222.259,330.498 222.259,325.814 					"/>
					<polygon style="fill:#263238;" points="218.448,298.448 222.259,300.419 222.259,295.555 218.448,293.584 					"/>
					<polygon style="fill:#263238;" points="212.635,266.824 208.932,264.884 208.932,269.322 212.635,271.236 					"/>
					<polygon style="fill:#263238;" points="212.635,272.424 208.932,270.51 208.932,275.374 212.635,277.288 					"/>
					<polygon style="fill:#263238;" points="212.635,278.476 208.932,276.562 208.932,281.426 212.635,283.34 					"/>
					<polygon style="fill:#263238;" points="212.635,290.579 208.932,288.665 208.932,293.529 212.635,295.444 					"/>
					<polygon style="fill:#263238;" points="218.448,292.396 222.259,294.367 222.259,289.503 218.448,287.533 					"/>
					<polygon style="fill:#263238;" points="212.635,284.528 208.932,282.614 208.932,287.477 212.635,289.391 					"/>
					<polygon style="fill:#263238;" points="212.635,325.176 212.635,320.838 208.932,318.924 208.932,323.129 					"/>
					<polygon style="fill:#263238;" points="218.448,286.345 222.259,288.315 222.259,283.452 218.448,281.481 					"/>
					<path style="fill:#263238;" d="M213.69,267.376v4.405l3.702,1.914v-3.961c0-0.134,0.054-0.254,0.137-0.347L213.69,267.376z"/>
					<polygon style="fill:#263238;" points="217.393,323.298 213.69,321.384 213.69,325.76 217.393,327.807 					"/>
				</g>
				<g>
					
						<polygon style="fill:#FFFFFF;stroke:#263238;stroke-width:1.0551;stroke-linecap:round;stroke-linejoin:round;stroke-miterlimit:10;" points="
						227.544,272.272 227.544,329.685 241.367,320.335 241.367,261.702 					"/>
					
						<line style="fill:none;stroke:#263238;stroke-width:1.0551;stroke-linecap:round;stroke-linejoin:round;stroke-miterlimit:10;" x1="230.725" y1="270.33" x2="230.725" y2="327.137"/>
					
						<line style="fill:none;stroke:#263238;stroke-width:1.0551;stroke-linecap:round;stroke-linejoin:round;stroke-miterlimit:10;" x1="234.194" y1="267.728" x2="234.194" y2="324.535"/>
					
						<line style="fill:none;stroke:#263238;stroke-width:1.0551;stroke-linecap:round;stroke-linejoin:round;stroke-miterlimit:10;" x1="237.663" y1="265.127" x2="237.663" y2="321.934"/>
					
						<line style="fill:none;stroke:#263238;stroke-width:1.0551;stroke-linecap:round;stroke-linejoin:round;stroke-miterlimit:10;" x1="227.906" y1="277.485" x2="241.349" y2="267.295"/>
					
						<line style="fill:none;stroke:#263238;stroke-width:1.0551;stroke-linecap:round;stroke-linejoin:round;stroke-miterlimit:10;" x1="227.906" y1="283.99" x2="241.349" y2="273.799"/>
					
						<line style="fill:none;stroke:#263238;stroke-width:1.0551;stroke-linecap:round;stroke-linejoin:round;stroke-miterlimit:10;" x1="227.906" y1="290.495" x2="241.349" y2="280.304"/>
					
						<line style="fill:none;stroke:#263238;stroke-width:1.0551;stroke-linecap:round;stroke-linejoin:round;stroke-miterlimit:10;" x1="227.906" y1="296.999" x2="241.349" y2="286.809"/>
					
						<line style="fill:none;stroke:#263238;stroke-width:1.0551;stroke-linecap:round;stroke-linejoin:round;stroke-miterlimit:10;" x1="227.906" y1="303.504" x2="241.349" y2="293.313"/>
					
						<line style="fill:none;stroke:#263238;stroke-width:1.0551;stroke-linecap:round;stroke-linejoin:round;stroke-miterlimit:10;" x1="227.906" y1="310.009" x2="241.349" y2="299.818"/>
					
						<line style="fill:none;stroke:#263238;stroke-width:1.0551;stroke-linecap:round;stroke-linejoin:round;stroke-miterlimit:10;" x1="227.906" y1="316.513" x2="241.349" y2="306.323"/>
					
						<line style="fill:none;stroke:#263238;stroke-width:1.0551;stroke-linecap:round;stroke-linejoin:round;stroke-miterlimit:10;" x1="227.906" y1="323.018" x2="241.349" y2="312.827"/>
				</g>
			</g>
		</g>
	</g>
	<g>
		
			<polygon style="fill:#FFFFFF;stroke:#263238;stroke-width:1.0551;stroke-linecap:round;stroke-linejoin:round;stroke-miterlimit:10;" points="
			135.418,346.693 117.966,337.781 117.966,320.329 135.047,327.756 		"/>
		
			<polygon style="fill:#FFFFFF;stroke:#263238;stroke-width:1.0551;stroke-linecap:round;stroke-linejoin:round;stroke-miterlimit:10;" points="
			143.959,340.381 135.418,346.693 135.418,324.414 145.073,309.19 		"/>
		
			<polygon style="fill:#263238;stroke:#263238;stroke-width:1.0551;stroke-linecap:round;stroke-linejoin:round;stroke-miterlimit:10;" points="
			143.959,314.017 134.304,330.726 114.996,321.443 132.448,298.422 149.528,305.848 		"/>
		
			<polygon style="fill:#263238;stroke:#263238;stroke-width:1.0551;stroke-linecap:round;stroke-linejoin:round;stroke-miterlimit:10;" points="
			158.069,307.333 168.466,313.646 164.752,313.646 157.697,309.932 		"/>
		
			<polygon style="fill:#FFFFFF;stroke:#263238;stroke-width:1.0551;stroke-linecap:round;stroke-linejoin:round;stroke-miterlimit:10;" points="
			159.183,332.212 164.752,328.127 164.752,313.646 157.697,309.932 		"/>
		
			<polygon style="fill:#FFFFFF;stroke:#263238;stroke-width:1.0551;stroke-linecap:round;stroke-linejoin:round;stroke-miterlimit:10;" points="
			148.786,342.608 148.786,288.396 154.727,280.598 159.183,285.426 159.183,336.668 		"/>
		
			<polygon style="fill:#FFFFFF;stroke:#263238;stroke-width:1.0551;stroke-linecap:round;stroke-linejoin:round;stroke-miterlimit:10;" points="
			148.786,342.608 143.959,340.381 143.959,314.017 139.132,311.789 139.132,285.797 148.786,288.396 		"/>
		
			<polygon style="fill:#263238;stroke:#263238;stroke-width:1.0551;stroke-linecap:round;stroke-linejoin:round;stroke-miterlimit:10;" points="
			139.132,285.797 144.33,278.371 154.727,280.598 148.786,288.396 		"/>
		<path style="fill:#263238;" d="M153.071,270.101c-0.261-0.521-0.893-0.733-1.416-0.472l-1.444,0.722v-1.635
			c0-0.583-0.473-1.055-1.055-1.055c-0.583,0-1.055,0.472-1.055,1.055v2.69l-3.13,1.565c-0.521,0.261-0.732,0.895-0.472,1.416
			c0.185,0.37,0.557,0.583,0.945,0.583c0.158,0,0.319-0.035,0.471-0.111l2.186-1.093v6.09c0,0.583,0.473,1.055,1.055,1.055
			c0.583,0,1.055-0.472,1.055-1.055v-7.145l2.387-1.194C153.121,271.256,153.332,270.622,153.071,270.101z"/>
	</g>
	<g>
		
			<ellipse style="fill:#FFFFFF;stroke:#263238;stroke-width:1.0551;stroke-miterlimit:10;" cx="337.045" cy="347.702" rx="30.049" ry="20.106"/>
		
			<ellipse style="fill:#FFFFFF;stroke:#263238;stroke-width:1.0551;stroke-miterlimit:10;" cx="337.045" cy="342.841" rx="30.049" ry="20.106"/>
		
			<ellipse style="fill:#FFFFFF;stroke:#263238;stroke-width:1.0551;stroke-miterlimit:10;" cx="337.045" cy="342.841" rx="26.086" ry="17.455"/>
		
			<path style="fill:#263238;stroke:#263238;stroke-width:1.0551;stroke-linecap:round;stroke-linejoin:round;stroke-miterlimit:10;" d="
			M337.045,330.247c-13.171,0-24.033,6.538-25.804,15.024c1.772,8.486,12.633,15.024,25.804,15.024
			c13.171,0,24.032-6.538,25.804-15.024C361.078,336.785,350.216,330.247,337.045,330.247z"/>
		<g>
			<g>
				<path style="fill:#263238;" d="M311.519,336.106c-0.26,0-0.471-0.211-0.471-0.471v-8.411c0-0.26,0.211-0.471,0.471-0.471
					c0.26,0,0.471,0.211,0.471,0.471v8.411C311.99,335.895,311.779,336.106,311.519,336.106z"/>
			</g>
			<polygon style="fill:#263238;" points="311.048,327.224 306.504,330.944 311.195,332.077 			"/>
		</g>
		<g>
			<g>
				<path style="fill:#263238;" d="M318.798,328.827c-0.26,0-0.471-0.211-0.471-0.471v-8.411c0-0.26,0.211-0.471,0.471-0.471
					c0.26,0,0.471,0.211,0.471,0.471v8.411C319.269,328.616,319.058,328.827,318.798,328.827z"/>
			</g>
			<polygon style="fill:#263238;" points="318.328,319.945 313.784,323.665 318.474,324.797 			"/>
		</g>
		<g>
			<g>
				<path style="fill:#263238;" d="M327.533,324.783c-0.26,0-0.471-0.211-0.471-0.471v-8.411c0-0.26,0.211-0.471,0.471-0.471
					c0.26,0,0.471,0.211,0.471,0.471v8.411C328.004,324.572,327.793,324.783,327.533,324.783z"/>
			</g>
			<polygon style="fill:#263238;" points="327.063,315.901 322.519,319.621 327.21,320.754 			"/>
		</g>
		<g>
			<g>
				<path style="fill:#263238;" d="M337.562,323.974c-0.26,0-0.471-0.211-0.471-0.471v-8.411c0-0.26,0.211-0.471,0.471-0.471
					c0.26,0,0.471,0.211,0.471,0.471v8.411C338.033,323.763,337.822,323.974,337.562,323.974z"/>
			</g>
			<polygon style="fill:#263238;" points="337.091,315.092 332.547,318.812 337.238,319.945 			"/>
		</g>
		<g>
			<g>
				<path style="fill:#263238;" d="M347.753,325.43c-0.26,0-0.471-0.211-0.471-0.471v-8.411c0-0.26,0.211-0.471,0.471-0.471
					c0.26,0,0.471,0.211,0.471,0.471v8.411C348.224,325.219,348.013,325.43,347.753,325.43z"/>
			</g>
			<polygon style="fill:#263238;" points="347.282,316.548 342.738,320.268 347.429,321.401 			"/>
		</g>
		<g>
			<g>
				<path style="fill:#263238;" d="M356.326,328.988c-0.26,0-0.471-0.211-0.471-0.471v-8.411c0-0.26,0.211-0.471,0.471-0.471
					c0.26,0,0.471,0.211,0.471,0.471v8.411C356.797,328.777,356.586,328.988,356.326,328.988z"/>
			</g>
			<polygon style="fill:#263238;" points="355.855,320.107 351.311,323.827 356.002,324.959 			"/>
		</g>
	</g>
	<g>
		
			<polygon style="fill:#FFFFFF;stroke:#263238;stroke-width:1.0551;stroke-linecap:round;stroke-linejoin:round;stroke-miterlimit:10;" points="
			273.536,233.147 259.002,244.956 276.512,266.13 291.703,243.139 		"/>
		
			<polygon style="fill:#FFFFFF;stroke:#263238;stroke-width:1.0551;stroke-linecap:round;stroke-linejoin:round;stroke-miterlimit:10;" points="
			276.512,254.622 291.703,243.139 291.703,296.889 276.512,306.479 		"/>
		
			<polygon style="fill:#263238;stroke:#263238;stroke-width:1.0551;stroke-linecap:round;stroke-linejoin:round;stroke-miterlimit:10;" points="
			276.512,306.479 259.569,296.498 259.002,244.956 276.512,254.622 		"/>
		
			<polygon style="fill:#263238;stroke:#263238;stroke-width:1.0551;stroke-linecap:round;stroke-linejoin:round;stroke-miterlimit:10;" points="
			273.918,235.808 263.003,244.748 276.423,252.04 287.675,243.157 		"/>
		
			<polygon style="fill:#FFFFFF;stroke:#263238;stroke-width:1.0551;stroke-linecap:round;stroke-linejoin:round;stroke-miterlimit:10;" points="
			264.629,245.632 276.423,252.04 286.001,244.479 273.918,238.024 		"/>
		
			<polygon style="fill:#FFFFFF;stroke:#263238;stroke-width:1.0551;stroke-linecap:round;stroke-linejoin:round;stroke-miterlimit:10;" points="
			271.564,244.951 277.108,247.963 281.611,244.408 275.931,241.374 		"/>
		<g>
			
				<polygon style="fill:#FFFFFF;stroke:#263238;stroke-width:1.0551;stroke-linecap:round;stroke-linejoin:round;stroke-miterlimit:10;" points="
				278.749,256.859 278.749,302.004 289.618,294.652 289.618,248.548 			"/>
			
				<line style="fill:none;stroke:#263238;stroke-width:1.0551;stroke-linecap:round;stroke-linejoin:round;stroke-miterlimit:10;" x1="281.25" y1="255.333" x2="281.25" y2="300.001"/>
			
				<line style="fill:none;stroke:#263238;stroke-width:1.0551;stroke-linecap:round;stroke-linejoin:round;stroke-miterlimit:10;" x1="283.978" y1="253.287" x2="283.978" y2="297.955"/>
			
				<line style="fill:none;stroke:#263238;stroke-width:1.0551;stroke-linecap:round;stroke-linejoin:round;stroke-miterlimit:10;" x1="286.706" y1="251.241" x2="286.706" y2="295.909"/>
		</g>
		
			<line style="fill:none;stroke:#FFFFFF;stroke-width:1.0551;stroke-linecap:round;stroke-linejoin:round;stroke-miterlimit:10;" x1="261.359" y1="250.1" x2="261.359" y2="295.548"/>
		
			<line style="fill:none;stroke:#FFFFFF;stroke-width:1.0551;stroke-linecap:round;stroke-linejoin:round;stroke-miterlimit:10;" x1="264.268" y1="251.736" x2="264.268" y2="297.184"/>
		
			<line style="fill:none;stroke:#FFFFFF;stroke-width:1.0551;stroke-linecap:round;stroke-linejoin:round;stroke-miterlimit:10;" x1="267.177" y1="253.372" x2="267.177" y2="298.82"/>
		
			<line style="fill:none;stroke:#FFFFFF;stroke-width:1.0551;stroke-linecap:round;stroke-linejoin:round;stroke-miterlimit:10;" x1="270.085" y1="255.009" x2="270.085" y2="300.456"/>
		
			<line style="fill:none;stroke:#FFFFFF;stroke-width:1.0551;stroke-linecap:round;stroke-linejoin:round;stroke-miterlimit:10;" x1="272.994" y1="256.645" x2="272.994" y2="302.092"/>
	</g>
	<g>
		
			<polygon style="fill:#FFFFFF;stroke:#263238;stroke-width:1.0551;stroke-linecap:round;stroke-linejoin:round;stroke-miterlimit:10;" points="
			190.941,389.993 152.956,389.993 157.177,367.308 192.524,367.308 		"/>
		
			<polygon style="fill:#FFFFFF;stroke:#263238;stroke-width:1.0551;stroke-linecap:round;stroke-linejoin:round;stroke-miterlimit:10;" points="
			190.941,362.559 152.956,362.559 157.177,339.874 192.524,339.874 		"/>
		
			<polygon style="fill:#263238;stroke:#263238;stroke-width:1.0551;stroke-linecap:round;stroke-linejoin:round;stroke-miterlimit:10;" points="
			188.41,360.982 155.707,360.982 159.341,341.451 189.773,341.451 		"/>
		
			<polygon style="fill:#FFFFFF;stroke:#263238;stroke-width:1.0551;stroke-linecap:round;stroke-linejoin:round;stroke-miterlimit:10;" points="
			156.099,360.982 188.41,360.982 189.626,343.558 159.341,343.558 		"/>
		
			<rect x="152.956" y="362.559" style="fill:#FFFFFF;stroke:#263238;stroke-width:1.0551;stroke-linecap:round;stroke-linejoin:round;stroke-miterlimit:10;" width="37.985" height="27.434"/>
		
			<polygon style="fill:#FFFFFF;stroke:#263238;stroke-width:1.0551;stroke-linecap:round;stroke-linejoin:round;stroke-miterlimit:10;" points="
			192.524,339.874 192.398,368.839 190.941,389.993 190.941,362.559 		"/>
		
			<line style="fill:none;stroke:#263238;stroke-width:1.0551;stroke-linecap:round;stroke-linejoin:round;stroke-miterlimit:10;" x1="154.74" y1="368.312" x2="188.711" y2="368.312"/>
		
			<line style="fill:none;stroke:#263238;stroke-width:1.0551;stroke-linecap:round;stroke-linejoin:round;stroke-miterlimit:10;" x1="154.74" y1="373.316" x2="188.711" y2="373.316"/>
		
			<line style="fill:none;stroke:#263238;stroke-width:1.0551;stroke-linecap:round;stroke-linejoin:round;stroke-miterlimit:10;" x1="154.74" y1="378.319" x2="188.711" y2="378.319"/>
		
			<line style="fill:none;stroke:#263238;stroke-width:1.0551;stroke-linecap:round;stroke-linejoin:round;stroke-miterlimit:10;" x1="154.74" y1="383.323" x2="188.711" y2="383.323"/>
		
			<polygon style="fill:#FFFFFF;stroke:#263238;stroke-width:1.0551;stroke-linecap:round;stroke-linejoin:round;stroke-miterlimit:10;" points="
			192.925,352.512 202.405,352.512 203.458,364.889 191.608,364.889 		"/>
		
			<polygon style="fill:#FFFFFF;stroke:#263238;stroke-width:1.0551;stroke-linecap:round;stroke-linejoin:round;stroke-miterlimit:10;" points="
			203.458,364.889 203.458,385.166 191.871,385.166 191.608,364.889 		"/>
		<g>
			
				<ellipse style="fill:#263238;stroke:#263238;stroke-width:1.0551;stroke-linecap:round;stroke-linejoin:round;stroke-miterlimit:10;" cx="179.803" cy="350.497" rx="7.422" ry="5.047"/>
			
				<path style="fill:#FFFFFF;stroke:#263238;stroke-width:1.0551;stroke-linecap:round;stroke-linejoin:round;stroke-miterlimit:10;" d="
				M187.225,348.656c0,2.787-3.323,5.047-7.422,5.047s-7.422-2.259-7.422-5.047c0-2.787,3.323-5.047,7.422-5.047
				S187.225,345.869,187.225,348.656z"/>
		</g>
		
			<rect x="155.284" y="386.596" style="fill:#263238;stroke:#263238;stroke-width:1.0551;stroke-linecap:round;stroke-linejoin:round;stroke-miterlimit:10;" width="6.517" height="3.288"/>
		
			<rect x="164.186" y="386.596" style="fill:#263238;stroke:#263238;stroke-width:1.0551;stroke-linecap:round;stroke-linejoin:round;stroke-miterlimit:10;" width="6.517" height="3.288"/>
		
			<rect x="173.088" y="386.596" style="fill:#263238;stroke:#263238;stroke-width:1.0551;stroke-linecap:round;stroke-linejoin:round;stroke-miterlimit:10;" width="6.517" height="3.288"/>
		
			<rect x="181.99" y="386.596" style="fill:#263238;stroke:#263238;stroke-width:1.0551;stroke-linecap:round;stroke-linejoin:round;stroke-miterlimit:10;" width="6.517" height="3.288"/>
	</g>
	<g>
		
			<path style="fill:#263238;stroke:#263238;stroke-width:1.0551;stroke-linecap:round;stroke-linejoin:round;stroke-miterlimit:10;" d="
			M331.973,309.852c0,0-2.235-18.548,0-16.536c2.235,2.011,2.235,6.927,2.235,6.927s-0.894-25.475,2.905-23.017
			c3.799,2.458,2.011,25.028,2.011,25.028s3.352-8.045,3.575-3.576c0.224,4.469-2.458,14.302-2.458,14.302l-1.788-1.564h-2.011
			l-1.341-1.788l-2.235,0.894L331.973,309.852z"/>
		
			<path style="fill:#263238;stroke:#263238;stroke-width:1.0551;stroke-linecap:round;stroke-linejoin:round;stroke-miterlimit:10;" d="
			M344.098,310.299c0,0-0.843-8.268,0.311-9.386c1.154-1.117,2.168,2.011,2.168,2.011s-1.434-17.43,1.688-17.207
			c3.121,0.223,2.715,19.218,2.715,19.218s3.201-8.939,4.014-6.48c0.812,2.458-0.49,8.045-0.49,8.045s2.874-5.81,3.031-3.799
			c0.157,2.011-0.298,2.235-0.32,2.905c-0.022,0.67-1.221,3.128-1.221,3.128l-2.443-0.447l-1.631,2.011l-2.883-0.67l-2.07,1.788
			L344.098,310.299z"/>
		
			<path style="fill:#263238;stroke:#263238;stroke-width:1.0551;stroke-linecap:round;stroke-linejoin:round;stroke-miterlimit:10;" d="
			M350.744,313.651c0,0-1.341-7.821,0.447-6.704c1.788,1.117,2.681,4.246,2.681,4.246s0.894-14.749,1.564-14.749
			c0.671,0,0.894,6.034,0.894,6.704c0,0.671-0.894-12.961,1.341-12.291c2.235,0.671,1.564,17.207,1.564,17.207
			s2.235-5.14,2.235-2.458c0,2.682-2.011,8.939-2.011,8.939s3.352-4.469,3.352-2.458c0,2.011-1.341,7.374-1.341,7.374l-3.352-2.235
			h-2.905l-1.117-1.341l-2.458-0.223L350.744,313.651z"/>
	</g>
	<g>
		
			<polygon style="fill:#FFFFFF;stroke:#263238;stroke-width:1.1809;stroke-linecap:round;stroke-linejoin:round;stroke-miterlimit:10;" points="
			367.971,216.143 359.616,213.295 356.958,213.295 357.907,216.143 		"/>
		
			<path style="fill:#FFFFFF;stroke:#263238;stroke-width:1.1809;stroke-linecap:round;stroke-linejoin:round;stroke-miterlimit:10;" d="
			M378.155,215.724l-40.787,2.103c0,0-7.148-10.092-8.41-10.092c-1.261,0-7.148-0.421-7.148-0.421l9.671,22.286
			c0,0,53.822-0.421,55.925-1.682c2.102-1.261,4.625-5.466,0.42-8.83C383.621,215.724,378.155,215.724,378.155,215.724z"/>
		
			<path style="fill:#FFFFFF;stroke:#263238;stroke-width:1.1809;stroke-linecap:round;stroke-linejoin:round;stroke-miterlimit:10;" d="
			M321.81,207.315l5.699,13.131l3.625-0.125l-6.234-12.797C323.275,207.419,321.81,207.315,321.81,207.315z"/>
		
			<path style="fill:#FFFFFF;stroke:#263238;stroke-width:1.1809;stroke-linecap:round;stroke-linejoin:round;stroke-miterlimit:10;" d="
			M366.815,226.617c0,0-6.656-1.155-10.933-0.841c-5.155,0.378-6.307,0.841-6.307,0.841l-12.615,6.728l5.894-0.268L366.815,226.617z
			"/>
		<path style="fill:#263238;" d="M387.081,223.779c0,1.279,0.829,2.345,1.934,2.605c0.996-1.384,1.559-3.341,0.546-5.271
			c-0.009,0-0.017-0.003-0.025-0.003C388.179,221.11,387.081,222.305,387.081,223.779z"/>
		<g>
			<polygon style="fill:#263238;" points="379.231,221.11 383.683,221.11 383.304,218.749 379.231,218.749 			"/>
			<path style="fill:#263238;" d="M384.92,221.11h4.639c-0.362-0.687-0.918-1.37-1.733-2.022c-0.151-0.121-0.306-0.228-0.46-0.34
				h-2.825L384.92,221.11z"/>
			<path style="fill:#263238;" d="M378.009,218.749h-3.218c-0.652,0-1.181,0.529-1.181,1.181c0,0.652,0.529,1.181,1.181,1.181h3.218
				V218.749z"/>
		</g>
		<path style="fill:#263238;" d="M341.362,222.286c0,0.787-0.638,1.425-1.425,1.425c-0.787,0-1.425-0.638-1.425-1.425
			c0-0.787,0.638-1.425,1.425-1.425C340.724,220.861,341.362,221.499,341.362,222.286z"/>
		<path style="fill:#263238;" d="M347.673,222.082c0,0.787-0.638,1.425-1.425,1.425c-0.787,0-1.425-0.638-1.425-1.425
			c0-0.787,0.638-1.425,1.425-1.425C347.035,220.657,347.673,221.295,347.673,222.082z"/>
		<path style="fill:#263238;" d="M353.985,221.879c0,0.787-0.638,1.425-1.425,1.425c-0.787,0-1.425-0.638-1.425-1.425
			c0-0.787,0.638-1.425,1.425-1.425C353.347,220.454,353.985,221.092,353.985,221.879z"/>
		<path style="fill:#263238;" d="M360.296,221.675c0,0.787-0.638,1.425-1.425,1.425c-0.787,0-1.425-0.638-1.425-1.425
			c0-0.787,0.638-1.425,1.425-1.425C359.658,220.25,360.296,220.888,360.296,221.675z"/>
		<circle style="fill:#263238;" cx="365.183" cy="221.472" r="1.425"/>
		
			<path style="fill:#FFFFFF;stroke:#263238;stroke-width:1.1809;stroke-linecap:round;stroke-linejoin:round;stroke-miterlimit:10;" d="
			M329.615,212.536c0,0-4.937,0.19-6.266,0.38c-1.329,0.19-3.798,1.519-3.798,1.519s3.038,0.57,5.127,0.57
			C326.766,215.004,331.703,215.574,329.615,212.536z"/>
	</g>
	
		<path style="fill:#263238;stroke:#263238;stroke-width:2.2252;stroke-linecap:round;stroke-linejoin:round;stroke-miterlimit:10;" d="
		M250.041,148.73c-15.157,0-27.444,12.287-27.444,27.444c0,15.157,27.444,43.763,27.444,43.763s27.444-28.606,27.444-43.763
		C277.485,161.017,265.198,148.73,250.041,148.73z M250.041,184.585c-6.246,0-11.31-5.064-11.31-11.31
		c0-6.246,5.064-11.31,11.31-11.31c6.246,0,11.31,5.064,11.31,11.31C261.351,179.522,256.287,184.585,250.041,184.585z"/>
</g>
</svg>
