<?xml version="1.0" standalone="no"?>
<!DOCTYPE svg PUBLIC "-//W3C//DTD SVG 20010904//EN"
 "http://www.w3.org/TR/2001/REC-SVG-20010904/DTD/svg10.dtd">
<svg version="1.0" xmlns="http://www.w3.org/2000/svg"
 width="2000.000000pt" height="1868.000000pt" viewBox="0 0 2000.000000 1868.000000"
 preserveAspectRatio="xMidYMid meet">

<g transform="translate(0.000000,1868.000000) scale(0.100000,-0.100000)"
fill="#000000" stroke="none">
<path d="M9088 17095 c-340 -65 -730 -391 -922 -772 -113 -226 -127 -473 -36
-653 33 -65 98 -153 171 -230 48 -51 70 -92 46 -87 -6 1 -17 -11 -26 -28 -9
-16 -215 -295 -459 -620 l-442 -590 -160 -110 c-149 -103 -164 -116 -230 -204
-38 -52 -70 -98 -70 -102 0 -5 9 -23 20 -41 36 -59 29 -75 -72 -172 -106 -101
-153 -135 -194 -141 -16 -2 -31 -4 -34 -4 -3 -1 -14 -16 -25 -33 -10 -18 -93
-131 -183 -251 -183 -243 -193 -264 -150 -327 44 -64 127 -95 192 -70 15 5 89
93 193 231 92 121 193 253 223 293 50 66 54 75 55 126 0 73 32 135 106 205 47
45 64 55 92 55 32 0 40 7 95 82 55 74 64 96 117 260 32 100 67 191 80 206 12
15 211 279 442 587 231 308 438 578 460 601 l39 41 35 -18 c76 -39 178 -78
255 -95 l80 -18 -14 -61 c-9 -41 -13 -102 -10 -194 l4 -133 29 -26 30 -25 3
85 3 86 52 22 c112 47 165 51 667 60 330 5 488 12 519 20 38 12 45 11 53 -3
12 -22 90 -94 132 -123 l34 -23 4 -98 c3 -85 6 -103 28 -133 17 -24 25 -49 25
-79 1 -29 7 -47 18 -56 14 -10 17 -36 19 -176 l3 -164 44 -3 c118 -9 224 89
225 207 0 96 -63 183 -155 210 -36 11 -39 14 -39 49 0 26 6 41 19 49 47 29 61
340 22 486 -34 129 -93 229 -191 327 -47 47 -111 100 -143 119 -122 72 -329
131 -458 131 -27 0 -49 2 -49 4 0 3 24 51 54 108 65 124 119 265 140 370 21
100 21 294 1 373 -53 208 -222 385 -432 451 -97 32 -230 39 -335 19z m132 -40
c8 -9 9 -20 4 -28 -5 -7 1 -2 13 12 17 20 30 25 55 23 38 -4 120 -25 162 -41
25 -10 27 -13 15 -29 -13 -15 -12 -16 3 -3 15 11 22 9 55 -16 21 -16 57 -42
81 -57 23 -16 42 -33 42 -37 0 -5 6 -9 14 -9 19 0 69 -68 60 -82 -4 -7 -3 -8
4 -4 11 7 52 -60 52 -86 1 -7 9 -31 20 -53 24 -49 25 -83 4 -106 -10 -11 -12
-19 -4 -24 6 -3 9 -1 8 6 -2 6 2 13 8 16 17 6 19 -148 2 -159 -10 -6 -10 -10
-1 -16 8 -5 9 -20 2 -52 -5 -25 -12 -60 -14 -79 -3 -18 -15 -54 -27 -80 -12
-25 -21 -51 -20 -58 2 -6 -12 -43 -29 -82 -28 -62 -34 -70 -48 -59 -14 12 -14
11 -3 -4 12 -15 8 -27 -28 -92 -22 -42 -44 -77 -48 -80 -9 -5 -126 -19 -174
-20 -20 -1 -34 -4 -32 -7 5 -9 -116 -40 -128 -33 -6 4 -8 3 -5 -3 6 -10 -10
-18 -92 -51 -10 -4 -12 -1 -6 9 4 8 -5 2 -21 -13 -16 -15 -60 -50 -97 -79
-106 -79 -172 -159 -222 -267 -22 -47 -27 -51 -44 -42 -29 15 -34 29 -20 48
13 16 12 15 -7 0 -16 -14 -23 -15 -33 -5 -11 10 -11 8 0 -10 7 -12 16 -20 20
-17 4 2 11 -1 14 -6 16 -26 -215 41 -234 68 -9 12 -181 132 -189 132 -5 0 -23
16 -42 35 -30 30 -32 36 -19 52 13 16 12 17 -3 5 -15 -12 -21 -8 -47 29 -31
42 -32 65 -2 54 13 -5 13 -4 4 6 -10 10 -10 16 0 29 6 9 2 6 -10 -7 -25 -27
-38 -30 -29 -8 3 9 -1 18 -9 21 -13 5 -28 34 -31 59 0 6 -6 23 -13 40 -7 16
-10 37 -8 47 3 10 1 20 -4 23 -11 7 -3 179 10 224 6 19 18 43 28 54 10 11 12
17 4 12 -11 -6 -12 -2 -7 21 4 16 12 31 17 32 5 2 7 8 4 12 -7 12 37 100 47
94 4 -3 5 1 3 8 -7 19 94 180 107 172 7 -4 8 -2 4 4 -4 7 7 29 26 51 27 32 35
37 48 28 13 -10 13 -10 3 4 -10 12 -7 22 18 52 17 21 35 34 41 31 6 -4 8 -2 5
3 -8 13 128 143 150 143 10 0 13 -6 9 -16 -5 -13 -4 -14 7 -6 8 7 16 11 18 9
2 -1 -2 3 -10 10 -11 10 -12 15 -1 27 16 21 70 47 81 40 5 -3 6 1 3 9 -3 10 8
23 35 37 21 13 43 22 47 21 4 -2 10 2 13 7 6 10 85 52 97 52 4 0 1 -8 -7 -18
-8 -10 -4 -7 8 5 25 26 88 51 142 57 20 2 43 6 51 9 14 5 46 12 76 16 6 0 17
-6 24 -14z"/>
<path d="M9070 17007 c-12 -21 -12 -21 6 -7 10 8 20 15 22 16 2 1 -1 4 -5 7
-5 3 -15 -4 -23 -16z"/>
<path d="M9270 17026 c0 -2 8 -10 18 -17 15 -13 16 -12 3 4 -13 16 -21 21 -21
13z"/>
<path d="M9315 16989 c4 -5 1 -18 -6 -27 -11 -13 -8 -12 9 2 26 23 26 22 6 30
-9 3 -12 2 -9 -5z"/>
<path d="M9157 16968 c7 -8 11 -17 8 -19 -2 -3 4 -5 15 -5 22 0 17 12 -13 28
-19 10 -20 9 -10 -4z"/>
<path d="M8875 16930 c-10 -11 -16 -22 -13 -25 3 -3 13 6 22 20 20 30 16 32
-9 5z"/>
<path d="M9013 16943 c4 -3 1 -13 -6 -22 -10 -14 -10 -14 4 -4 9 7 20 9 25 5
4 -4 2 1 -5 11 -7 9 -16 17 -19 17 -3 0 -2 -3 1 -7z"/>
<path d="M9272 16920 c-12 -10 -19 -21 -15 -23 5 -3 16 6 26 19 21 29 19 30
-11 4z"/>
<path d="M9410 16920 c0 -5 5 -10 10 -10 6 0 10 5 10 10 0 6 -4 10 -10 10 -5
0 -10 -4 -10 -10z"/>
<path d="M9440 16906 c0 -2 8 -10 18 -17 15 -13 16 -12 3 4 -13 16 -21 21 -21
13z"/>
<path d="M9090 16884 c8 -10 15 -20 16 -22 1 -2 4 1 7 5 3 5 -4 15 -16 23 -21
12 -21 12 -7 -6z"/>
<path d="M9486 16869 c3 -5 14 -14 24 -19 16 -8 18 -7 14 4 -3 8 -14 16 -25
19 -10 3 -17 1 -13 -4z"/>
<path d="M8819 16853 c-13 -16 -12 -17 4 -4 16 13 21 21 13 21 -2 0 -10 -8
-17 -17z"/>
<path d="M8947 16847 c-3 -7 3 -13 13 -13 10 0 16 6 13 13 -3 7 -9 13 -13 13
-4 0 -10 -6 -13 -13z"/>
<path d="M9219 16843 c-13 -16 -12 -17 4 -4 16 13 21 21 13 21 -2 0 -10 -8
-17 -17z"/>
<path d="M9343 16843 c4 -3 1 -13 -6 -22 -10 -14 -10 -14 4 -4 9 7 20 9 25 5
4 -4 2 1 -5 11 -7 9 -16 17 -19 17 -3 0 -2 -3 1 -7z"/>
<path d="M9540 16836 c0 -2 8 -10 18 -17 15 -13 16 -12 3 4 -13 16 -21 21 -21
13z"/>
<path d="M8789 16813 c-13 -16 -12 -17 4 -4 16 13 21 21 13 21 -2 0 -10 -8
-17 -17z"/>
<path d="M9184 16809 c0 -13 3 -15 13 -7 7 6 13 12 13 13 0 2 -6 5 -13 8 -7 3
-13 -3 -13 -14z"/>
<path d="M9027 16799 c7 -9 9 -20 5 -25 -4 -4 1 -2 11 5 9 7 17 16 17 19 0 3
-3 2 -7 -1 -3 -4 -13 -1 -22 6 -14 10 -14 10 -4 -4z"/>
<path d="M9586 16798 c3 -5 10 -6 15 -3 13 9 11 12 -6 12 -8 0 -12 -4 -9 -9z"/>
<path d="M9426 16775 c4 -9 9 -13 12 -11 3 3 12 0 20 -7 13 -9 14 -9 8 0 -4 7
-16 18 -26 23 -16 9 -18 8 -14 -5z"/>
<path d="M9159 16763 c-13 -16 -12 -17 4 -4 16 13 21 21 13 21 -2 0 -10 -8
-17 -17z"/>
<path d="M8886 16762 c-3 -5 1 -9 9 -9 8 0 12 4 9 9 -3 4 -7 8 -9 8 -2 0 -6
-4 -9 -8z"/>
<path d="M9280 16750 c0 -5 5 -10 10 -10 6 0 10 5 10 10 0 6 -4 10 -10 10 -5
0 -10 -4 -10 -10z"/>
<path d="M8726 16734 c-5 -14 -4 -15 9 -4 17 14 19 20 6 20 -5 0 -12 -7 -15
-16z"/>
<path d="M9685 16741 c-3 -5 -2 -12 3 -15 5 -3 9 1 9 9 0 17 -3 19 -12 6z"/>
<path d="M8569 16727 c6 -8 7 -18 3 -22 -4 -5 -1 -5 6 -1 10 6 10 11 1 22 -6
8 -14 14 -16 14 -3 0 0 -6 6 -13z"/>
<path d="M9123 16725 c0 -8 4 -12 9 -9 5 3 6 10 3 15 -9 13 -12 11 -12 -6z"/>
<path d="M8967 16705 c3 -8 9 -12 14 -9 12 7 11 11 -5 17 -10 4 -13 1 -9 -8z"/>
<path d="M9520 16710 c0 -5 5 -10 10 -10 6 0 10 5 10 10 0 6 -4 10 -10 10 -5
0 -10 -4 -10 -10z"/>
<path d="M9710 16716 c0 -2 8 -10 18 -17 15 -13 16 -12 3 4 -13 16 -21 21 -21
13z"/>
<path d="M9385 16700 c-4 -6 -11 -8 -16 -5 -5 4 -9 4 -9 1 0 -3 8 -10 18 -15
14 -7 18 -6 18 10 0 22 -2 23 -11 9z"/>
<path d="M8817 16677 c-3 -7 3 -13 13 -13 10 0 16 6 13 13 -3 7 -9 13 -13 13
-4 0 -10 -6 -13 -13z"/>
<path d="M9750 16686 c0 -2 7 -9 15 -16 9 -7 15 -8 15 -2 0 5 -7 12 -15 16 -8
3 -15 4 -15 2z"/>
<path d="M9226 16671 c-3 -5 2 -15 12 -22 15 -12 16 -12 5 2 -7 9 -10 19 -6
22 3 4 4 7 0 7 -3 0 -8 -4 -11 -9z"/>
<path d="M8660 16665 c0 -2 6 -8 13 -14 10 -8 14 -7 14 2 0 8 -6 14 -14 14 -7
0 -13 -1 -13 -2z"/>
<path d="M9622 16661 c-11 -6 -10 -10 0 -19 11 -8 14 -7 14 9 0 10 0 19 -1 19
0 0 -6 -4 -13 -9z"/>
<path d="M8505 16638 c3 -7 17 -18 31 -25 22 -10 24 -10 13 3 -18 22 -50 38
-44 22z"/>
<path d="M9060 16640 c0 -5 5 -10 11 -10 5 0 7 5 4 10 -3 6 -8 10 -11 10 -2 0
-4 -4 -4 -10z"/>
<path d="M9199 16633 c-13 -16 -12 -17 4 -4 16 13 21 21 13 21 -2 0 -10 -8
-17 -17z"/>
<path d="M9455 16632 c4 -8 -1 -23 -11 -35 -18 -22 -18 -22 6 0 20 19 22 25
11 35 -11 11 -13 10 -6 0z"/>
<path d="M8906 16618 c3 -5 10 -6 15 -3 13 9 11 12 -6 12 -8 0 -12 -4 -9 -9z"/>
<path d="M9039 16603 c-13 -16 -12 -17 4 -4 16 13 21 21 13 21 -2 0 -10 -8
-17 -17z"/>
<path d="M9310 16610 c-8 -5 -11 -10 -6 -10 5 0 1 -10 -10 -22 l-19 -23 22 18
c13 12 27 16 35 11 10 -6 11 -5 1 8 -7 8 -10 18 -6 21 9 10 0 8 -17 -3z"/>
<path d="M9720 16605 c-7 -8 -17 -12 -23 -8 -6 4 -7 1 -3 -6 6 -9 13 -8 27 5
10 9 19 19 19 21 0 7 -8 2 -20 -12z"/>
<path d="M8761 16597 c-8 -10 -7 -14 2 -14 8 0 14 6 14 14 0 7 -1 13 -2 13 -2
0 -8 -6 -14 -13z"/>
<path d="M9166 16591 c-15 -17 -15 -19 -1 -25 10 -3 14 -2 10 5 -4 5 -1 16 5
24 18 22 6 18 -14 -4z"/>
<path d="M8613 16583 c-15 -5 -17 -23 -4 -23 5 0 11 7 15 15 3 8 4 15 3 14 -1
0 -8 -3 -14 -6z"/>
<path d="M9561 16576 c-9 -11 -9 -16 1 -22 7 -4 10 -4 6 1 -4 4 -3 14 3 22 6
7 9 13 6 13 -2 0 -10 -6 -16 -14z"/>
<path d="M8446 16548 c3 -5 10 -6 15 -3 13 9 11 12 -6 12 -8 0 -12 -4 -9 -9z"/>
<path d="M9190 16556 c0 -2 8 -10 18 -17 15 -13 16 -12 3 4 -13 16 -21 21 -21
13z"/>
<path d="M8579 16533 c-13 -16 -12 -17 4 -4 9 7 17 15 17 17 0 8 -8 3 -21 -13z"/>
<path d="M8830 16546 c0 -2 8 -10 18 -17 15 -13 16 -12 3 4 -13 16 -21 21 -21
13z"/>
<path d="M8979 16523 c-13 -16 -12 -17 4 -4 16 13 21 21 13 21 -2 0 -10 -8
-17 -17z"/>
<path d="M9655 16522 c-17 -15 -31 -42 -22 -42 2 0 13 14 25 30 26 34 25 36
-3 12z"/>
<path d="M8429 16513 c-13 -16 -12 -17 4 -4 16 13 21 21 13 21 -2 0 -10 -8
-17 -17z"/>
<path d="M8700 16515 c-7 -9 -8 -15 -2 -15 5 0 12 7 16 15 3 8 4 15 2 15 -2 0
-9 -7 -16 -15z"/>
<path d="M9234 16510 c0 -13 4 -16 11 -10 7 6 16 5 25 -3 10 -9 11 -9 6 0 -4
7 -15 17 -24 22 -14 7 -18 5 -18 -9z"/>
<path d="M9060 16517 c0 -3 15 -16 33 -28 17 -13 26 -16 20 -8 -10 12 -10 18
0 29 10 12 9 12 -5 1 -15 -11 -21 -11 -33 -1 -8 7 -15 10 -15 7z"/>
<path d="M8545 16491 c-3 -5 -2 -12 3 -15 5 -3 9 1 9 9 0 17 -3 19 -12 6z"/>
<path d="M8930 16471 c0 -5 7 -12 16 -15 14 -5 15 -4 4 9 -14 17 -20 19 -20 6z"/>
<path d="M9471 16458 c-13 -22 -13 -23 6 -5 11 9 23 14 28 10 4 -5 5 -2 1 5
-10 18 -19 15 -35 -10z"/>
<path d="M8383 16463 c4 -3 -1 -16 -10 -27 -18 -21 -18 -21 5 -2 24 21 29 36
10 36 -6 0 -8 -3 -5 -7z"/>
<path d="M8790 16455 c-7 -9 -8 -15 -2 -15 5 0 12 7 16 15 3 8 4 15 2 15 -2 0
-9 -7 -16 -15z"/>
<path d="M9186 16445 c-11 -8 -15 -15 -9 -15 6 0 16 7 23 15 16 19 11 19 -14
0z"/>
<path d="M9322 16440 c-12 -19 -11 -20 8 -8 20 13 27 28 12 28 -4 0 -13 -9
-20 -20z"/>
<path d="M9599 16443 c-13 -16 -12 -17 4 -4 16 13 21 21 13 21 -2 0 -10 -8
-17 -17z"/>
<path d="M8642 16438 c-16 -16 -15 -25 4 -32 13 -5 14 -4 6 7 -9 10 -8 17 0
25 7 7 10 12 7 12 -3 0 -10 -5 -17 -12z"/>
<path d="M9723 16435 c0 -8 4 -12 9 -9 5 3 6 10 3 15 -9 13 -12 11 -12 -6z"/>
<path d="M9567 16414 c6 -15 23 -19 23 -5 0 5 -7 11 -14 14 -10 4 -13 1 -9 -9z"/>
<path d="M9750 16426 c0 -2 8 -10 18 -17 15 -13 16 -12 3 4 -13 16 -21 21 -21
13z"/>
<path d="M8869 16378 c-15 -21 -17 -28 -7 -20 10 8 23 10 30 6 10 -6 11 -5 1
7 -10 12 -10 18 -1 27 7 7 9 12 6 12 -4 0 -17 -15 -29 -32z"/>
<path d="M9016 16394 c-5 -13 -4 -14 7 -6 10 9 17 8 27 -1 12 -10 12 -9 1 6
-17 21 -27 22 -35 1z"/>
<path d="M8335 16390 c-4 -6 -11 -8 -16 -5 -14 9 -11 -1 5 -14 11 -9 15 -7 19
9 6 22 2 26 -8 10z"/>
<path d="M9420 16389 c0 -5 5 -7 10 -4 6 3 10 8 10 11 0 2 -4 4 -10 4 -5 0
-10 -5 -10 -11z"/>
<path d="M9139 16373 c-13 -16 -12 -17 4 -4 16 13 21 21 13 21 -2 0 -10 -8
-17 -17z"/>
<path d="M9263 16373 c4 -3 1 -13 -6 -22 -11 -14 -10 -14 5 -2 16 12 16 31 1
31 -4 0 -3 -3 0 -7z"/>
<path d="M8713 16363 c4 -3 1 -13 -6 -22 -11 -14 -10 -14 5 -2 16 12 16 31 1
31 -4 0 -3 -3 0 -7z"/>
<path d="M9106 16345 c4 -9 9 -13 12 -11 3 3 12 0 20 -7 13 -9 14 -9 8 0 -4 7
-16 18 -26 23 -16 9 -18 8 -14 -5z"/>
<path d="M9657 16346 c-4 -10 -1 -13 9 -9 7 3 14 9 14 14 0 14 -17 10 -23 -5z"/>
<path d="M8554 16330 c0 -13 4 -16 12 -10 6 6 14 7 17 3 4 -3 7 -3 7 0 0 3 -8
11 -18 16 -14 7 -18 6 -18 -9z"/>
<path d="M8401 16297 c-13 -21 -12 -21 5 -5 10 10 16 20 13 22 -3 3 -11 -5
-18 -17z"/>
<path d="M8788 16307 c8 -9 10 -22 6 -29 -6 -10 -5 -11 8 -1 8 7 18 10 21 6 4
-3 7 -4 7 -1 0 3 -12 14 -27 24 -23 14 -26 15 -15 1z"/>
<path d="M8960 16316 c0 -2 7 -7 16 -10 8 -3 12 -2 9 4 -6 10 -25 14 -25 6z"/>
<path d="M9346 16305 c4 -9 9 -13 12 -11 3 3 12 0 20 -7 13 -9 14 -9 8 0 -4 7
-16 18 -26 23 -16 9 -18 8 -14 -5z"/>
<path d="M8263 16298 c-20 -26 -26 -41 -15 -34 12 7 36 46 29 46 -3 0 -9 -6
-14 -12z"/>
<path d="M8669 16293 c-8 -10 -21 -27 -29 -37 -14 -18 -14 -18 7 -5 12 7 20
15 18 18 -3 2 2 13 12 23 9 10 14 18 11 18 -3 0 -11 -8 -19 -17z"/>
<path d="M9079 16293 c-13 -16 -12 -17 4 -4 16 13 21 21 13 21 -2 0 -10 -8
-17 -17z"/>
<path d="M9734 16303 c4 -7 16 -18 26 -23 16 -9 18 -8 14 5 -4 9 -9 13 -12 11
-3 -3 -12 0 -20 7 -13 9 -14 9 -8 0z"/>
<path d="M9206 16284 c-20 -19 -20 -25 -2 -18 8 3 17 12 20 20 7 18 1 18 -18
-2z"/>
<path d="M8520 16275 c-7 -9 -20 -13 -29 -10 -13 5 -13 4 -4 -6 10 -10 10 -16
0 -28 -10 -14 -10 -14 5 -3 9 8 23 10 30 6 10 -5 10 -4 1 6 -10 11 -9 17 4 32
9 10 14 18 11 18 -3 0 -11 -7 -18 -15z"/>
<path d="M9601 16267 c-8 -10 -7 -14 2 -14 8 0 14 6 14 14 0 7 -1 13 -2 13 -2
0 -8 -6 -14 -13z"/>
<path d="M9043 16255 c0 -8 4 -12 9 -9 5 3 6 10 3 15 -9 13 -12 11 -12 -6z"/>
<path d="M8680 16256 c0 -2 8 -10 18 -17 15 -13 16 -12 3 4 -13 16 -21 21 -21
13z"/>
<path d="M9440 16240 c0 -5 5 -10 10 -10 6 0 10 5 10 10 0 6 -4 10 -10 10 -5
0 -10 -4 -10 -10z"/>
<path d="M8900 16236 c0 -2 8 -10 18 -17 15 -13 16 -12 3 4 -13 16 -21 21 -21
13z"/>
<path d="M9270 16237 c0 -2 6 -10 14 -16 11 -9 16 -9 22 1 4 7 4 10 -1 6 -4
-4 -14 -3 -22 3 -7 6 -13 9 -13 6z"/>
<path d="M8336 16214 c-5 -13 -4 -14 7 -6 8 7 18 8 22 4 5 -4 5 -1 1 6 -10 17
-23 15 -30 -4z"/>
<path d="M8540 16226 c0 -2 8 -10 18 -17 15 -13 16 -12 3 4 -13 16 -21 21 -21
13z"/>
<path d="M9100 16226 c0 -2 8 -10 18 -17 15 -13 16 -12 3 4 -13 16 -21 21 -21
13z"/>
<path d="M9669 16217 c8 -10 24 -23 35 -29 18 -10 19 -9 9 4 -7 8 -9 19 -5 23
4 5 1 5 -6 1 -7 -4 -21 -2 -30 6 -15 12 -16 11 -3 -5z"/>
<path d="M8742 16207 c-8 -10 -6 -13 7 -13 11 0 17 6 14 13 -3 7 -6 13 -8 13
-1 0 -7 -6 -13 -13z"/>
<path d="M8187 16196 c-4 -10 -1 -13 9 -9 7 3 14 9 14 14 0 14 -17 10 -23 -5z"/>
<path d="M8455 16190 c-10 -11 -22 -17 -26 -14 -5 3 -6 -2 -3 -10 8 -20 7 -21
32 14 26 34 24 40 -3 10z"/>
<path d="M8859 16183 c-13 -16 -12 -17 4 -4 16 13 21 21 13 21 -2 0 -10 -8
-17 -17z"/>
<path d="M9543 16193 c-15 -5 -17 -23 -4 -23 5 0 11 7 15 15 3 8 4 15 3 14 -1
0 -8 -3 -14 -6z"/>
<path d="M8579 16173 c-13 -16 -12 -17 4 -4 16 13 21 21 13 21 -2 0 -10 -8
-17 -17z"/>
<path d="M8977 16174 c6 -15 23 -19 23 -5 0 5 -7 11 -14 14 -10 4 -13 1 -9 -9z"/>
<path d="M9389 16163 c-13 -16 -12 -17 4 -4 16 13 21 21 13 21 -2 0 -10 -8
-17 -17z"/>
<path d="M8826 16148 c3 -5 10 -6 15 -3 13 9 11 12 -6 12 -8 0 -12 -4 -9 -9z"/>
<path d="M8277 16137 c-3 -7 3 -13 14 -13 13 0 15 3 7 13 -6 7 -12 13 -13 13
-2 0 -5 -6 -8 -13z"/>
<path d="M9237 16143 c-11 -11 -8 -21 9 -27 13 -5 14 -4 6 7 -7 8 -9 17 -5 20
3 4 4 7 1 7 -2 0 -8 -3 -11 -7z"/>
<path d="M8686 16131 c-3 -5 2 -15 12 -22 15 -12 16 -12 5 2 -7 9 -10 19 -6
22 3 4 4 7 0 7 -3 0 -8 -4 -11 -9z"/>
<path d="M8399 16113 c-13 -16 -12 -17 4 -4 16 13 21 21 13 21 -2 0 -10 -8
-17 -17z"/>
<path d="M9059 16118 c15 -21 31 -23 31 -6 0 6 -3 8 -7 5 -3 -4 -13 -1 -22 6
-14 11 -14 10 -2 -5z"/>
<path d="M9610 16124 c0 -2 9 -8 20 -14 15 -8 18 -8 14 3 -4 11 -34 21 -34 11z"/>
<path d="M9440 16117 c0 -3 15 -16 33 -28 17 -13 26 -16 20 -8 -10 12 -10 18
0 29 10 12 9 12 -5 1 -15 -11 -21 -11 -33 -1 -8 7 -15 10 -15 7z"/>
<path d="M8520 16100 c0 -5 5 -10 10 -10 6 0 10 5 10 10 0 6 -4 10 -10 10 -5
0 -10 -4 -10 -10z"/>
<path d="M8924 16088 l-19 -23 23 19 c21 18 27 26 19 26 -2 0 -12 -10 -23 -22z"/>
<path d="M8363 16075 c0 -8 4 -12 9 -9 5 3 6 10 3 15 -9 13 -12 11 -12 -6z"/>
<path d="M8757 16063 c3 -7 6 -13 8 -13 1 0 7 6 13 13 8 10 6 13 -7 13 -11 0
-17 -6 -14 -13z"/>
<path d="M9310 16070 c0 -5 5 -10 11 -10 5 0 7 5 4 10 -3 6 -8 10 -11 10 -2 0
-4 -4 -4 -10z"/>
<path d="M8200 16063 c0 -1 8 -7 18 -12 13 -7 19 -6 19 2 0 7 -9 13 -19 13
-10 0 -18 -1 -18 -3z"/>
<path d="M9175 16060 c-4 -6 -11 -8 -16 -5 -23 15 -6 -5 19 -21 22 -14 25 -15
14 -1 -8 9 -11 21 -7 27 3 5 4 10 1 10 -3 0 -8 -5 -11 -10z"/>
<path d="M8619 16043 c-13 -16 -12 -17 4 -4 16 13 21 21 13 21 -2 0 -10 -8
-17 -17z"/>
<path d="M9340 16056 c0 -2 8 -10 18 -17 15 -13 16 -12 3 4 -13 16 -21 21 -21
13z"/>
<path d="M9570 16047 c-17 -14 -26 -42 -10 -32 6 4 19 1 28 -6 16 -13 15 -12
0 7 -14 16 -15 23 -6 32 16 16 7 15 -12 -1z"/>
<path d="M9705 16040 c-3 -6 1 -7 9 -4 18 7 21 14 7 14 -6 0 -13 -4 -16 -10z"/>
<path d="M9015 16029 c-4 -6 -5 -12 -2 -15 2 -3 7 2 10 11 7 17 1 20 -8 4z"/>
<path d="M9420 16025 c-7 -8 -17 -12 -23 -8 -6 3 -7 1 -3 -6 4 -6 2 -20 -5
-29 -12 -15 -12 -15 7 1 11 9 24 14 29 10 4 -5 5 -2 1 5 -4 7 -2 19 4 27 7 8
10 15 7 15 -2 0 -10 -7 -17 -15z"/>
<path d="M8863 16013 c-17 -6 -17 -20 0 -26 8 -3 13 3 13 14 0 11 0 19 -1 18
0 0 -6 -3 -12 -6z"/>
<path d="M9669 15993 c-13 -16 -12 -17 4 -4 16 13 21 21 13 21 -2 0 -10 -8
-17 -17z"/>
<path d="M8305 15990 c3 -5 8 -10 11 -10 2 0 4 5 4 10 0 6 -5 10 -11 10 -5 0
-7 -4 -4 -10z"/>
<path d="M8709 15983 c-13 -16 -12 -17 4 -4 16 13 21 21 13 21 -2 0 -10 -8
-17 -17z"/>
<path d="M9106 15975 c-11 -8 -16 -15 -11 -15 4 0 0 -10 -11 -22 -10 -12 -14
-18 -7 -14 11 6 58 66 51 66 -2 0 -12 -7 -22 -15z"/>
<path d="M9247 15976 c-4 -10 -1 -13 8 -9 8 3 12 9 9 14 -7 12 -11 11 -17 -5z"/>
<path d="M8157 15973 c-3 -5 4 -15 16 -23 21 -12 21 -12 7 6 -8 10 -15 20 -16
22 -1 2 -4 -1 -7 -5z"/>
<path d="M8565 15969 c-4 -6 -13 -8 -21 -5 -22 9 -16 0 14 -20 19 -12 23 -13
15 -3 -10 12 -10 18 -1 27 7 7 9 12 6 12 -4 0 -10 -5 -13 -11z"/>
<path d="M9643 15973 c4 -3 1 -13 -6 -22 -11 -14 -10 -14 5 -2 16 12 16 31 1
31 -4 0 -3 -3 0 -7z"/>
<path d="M8959 15953 c-8 -10 -21 -27 -29 -38 -14 -19 -14 -19 6 -2 11 9 24
14 29 10 4 -5 5 -2 1 5 -4 7 -2 19 4 27 7 8 10 15 8 15 -3 0 -11 -8 -19 -17z"/>
<path d="M9280 15966 c0 -2 8 -10 18 -17 15 -13 16 -12 3 4 -13 16 -21 21 -21
13z"/>
<path d="M9484 15940 c0 -13 4 -16 11 -10 7 6 16 5 25 -3 10 -9 11 -9 6 0 -4
7 -15 17 -24 22 -14 7 -18 5 -18 -9z"/>
<path d="M9340 15920 c-12 -16 -19 -30 -16 -30 2 0 14 14 26 30 12 17 19 30
16 30 -2 0 -14 -13 -26 -30z"/>
<path d="M8380 15908 l-23 -33 25 23 c13 12 28 19 32 15 4 -4 4 0 0 10 -3 9
-7 17 -8 17 -1 0 -13 -15 -26 -32z"/>
<path d="M8789 15909 c-21 -30 -21 -31 -1 -18 12 7 19 15 17 18 -3 2 0 10 6
18 6 7 9 13 6 13 -3 0 -16 -14 -28 -31z"/>
<path d="M8249 15913 c-13 -16 -12 -17 4 -4 16 13 21 21 13 21 -2 0 -10 -8
-17 -17z"/>
<path d="M9183 15903 c4 -3 1 -13 -6 -22 -10 -14 -10 -14 4 -4 9 7 20 9 25 5
4 -4 2 1 -5 11 -7 9 -16 17 -19 17 -3 0 -2 -3 1 -7z"/>
<path d="M8633 15893 c4 -3 -1 -16 -10 -27 -18 -21 -18 -21 4 -2 20 16 23 36
6 36 -4 0 -3 -3 0 -7z"/>
<path d="M8820 15896 c0 -2 8 -10 18 -17 15 -13 16 -12 3 4 -13 16 -21 21 -21
13z"/>
<path d="M9449 15883 c-13 -16 -12 -17 4 -4 16 13 21 21 13 21 -2 0 -10 -8
-17 -17z"/>
<path d="M8219 15873 c-13 -16 -12 -17 4 -4 16 13 21 21 13 21 -2 0 -10 -8
-17 -17z"/>
<path d="M8460 15888 c0 -3 6 -11 14 -17 10 -9 17 -7 27 6 12 16 12 17 -2 6
-12 -10 -18 -10 -27 -1 -7 7 -12 9 -12 6z"/>
<path d="M9020 15886 c0 -2 8 -10 18 -17 15 -13 16 -12 3 4 -13 16 -21 21 -21
13z"/>
<path d="M9577 15876 c-4 -10 -1 -13 8 -9 8 3 12 9 9 14 -7 12 -11 11 -17 -5z"/>
<path d="M8887 15865 c-18 -13 -18 -14 5 -26 20 -11 21 -10 11 3 -10 11 -10
17 -1 26 16 16 7 15 -15 -3z"/>
<path d="M9299 15863 c-13 -16 -12 -17 4 -4 16 13 21 21 13 21 -2 0 -10 -8
-17 -17z"/>
<path d="M9264 15830 c0 -13 4 -16 12 -10 6 6 14 7 17 3 4 -3 7 -3 7 0 0 3 -8
11 -18 16 -14 7 -18 6 -18 -9z"/>
<path d="M8184 15832 c-14 -9 -27 -45 -14 -37 9 6 34 45 28 45 -2 0 -8 -4 -14
-8z"/>
<path d="M8586 15821 c-14 -15 -15 -21 -4 -27 7 -4 10 -3 5 1 -4 5 0 17 10 27
9 10 14 18 11 18 -3 0 -13 -9 -22 -19z"/>
<path d="M8309 15813 c-13 -16 -12 -17 4 -4 9 7 17 15 17 17 0 8 -8 3 -21 -13z"/>
<path d="M8716 15814 c-5 -13 -4 -14 7 -6 8 7 18 8 22 4 5 -4 5 -1 1 6 -10 17
-23 15 -30 -4z"/>
<path d="M8988 15813 c-18 -21 -31 -43 -25 -43 2 0 13 14 25 30 25 33 24 41 0
13z"/>
<path d="M9112 15800 c-12 -19 -11 -20 8 -8 20 13 27 28 12 28 -4 0 -13 -9
-20 -20z"/>
<path d="M9389 15803 c-13 -16 -12 -17 4 -4 16 13 21 21 13 21 -2 0 -10 -8
-17 -17z"/>
<path d="M8407 15790 c10 -11 10 -17 0 -29 -10 -14 -10 -14 5 -3 9 8 22 11 28
7 5 -3 10 -4 10 -2 0 3 -12 13 -27 22 -16 10 -22 12 -16 5z"/>
<path d="M9239 15783 c-13 -16 -12 -17 4 -4 16 13 21 21 13 21 -2 0 -10 -8
-17 -17z"/>
<path d="M8280 15775 c-10 -12 -16 -13 -26 -4 -8 6 -14 9 -14 6 0 -3 21 -20
48 -37 35 -23 39 -25 18 -6 -25 21 -28 27 -17 40 8 9 11 16 8 16 -2 0 -10 -7
-17 -15z"/>
<path d="M8798 15778 c8 -10 10 -23 6 -30 -5 -10 -4 -10 6 -1 10 9 17 10 27 2
7 -7 13 -9 13 -6 0 3 -15 16 -32 28 -21 15 -28 17 -20 7z"/>
<path d="M9357 15766 c-4 -10 -1 -13 8 -9 8 3 12 9 9 14 -7 12 -11 11 -17 -5z"/>
<path d="M9197 15759 c7 -9 9 -20 5 -25 -4 -4 1 -2 11 5 9 7 17 16 17 19 0 3
-3 2 -7 -1 -3 -4 -13 -1 -22 6 -14 10 -14 10 -4 -4z"/>
<path d="M8657 15737 c-3 -7 3 -13 14 -13 13 0 15 3 7 13 -6 7 -12 13 -13 13
-2 0 -5 -6 -8 -13z"/>
<path d="M8860 15736 c0 -2 8 -10 18 -17 15 -13 16 -12 3 4 -13 16 -21 21 -21
13z"/>
<path d="M8779 15713 c-13 -16 -12 -17 4 -4 16 13 21 21 13 21 -2 0 -10 -8
-17 -17z"/>
<path d="M9054 15718 c-4 -7 -4 -10 1 -6 4 4 15 2 24 -5 14 -11 14 -10 2 6
-16 20 -18 21 -27 5z"/>
<path d="M8499 15703 c-13 -16 -12 -17 4 -4 16 13 21 21 13 21 -2 0 -10 -8
-17 -17z"/>
<path d="M8900 15700 c0 -5 5 -10 10 -10 6 0 10 5 10 10 0 6 -4 10 -10 10 -5
0 -10 -4 -10 -10z"/>
<path d="M8341 15678 c-14 -23 -14 -23 8 -4 22 20 25 26 13 26 -4 0 -13 -10
-21 -22z"/>
<path d="M8749 15673 c-13 -16 -12 -17 4 -4 9 7 17 15 17 17 0 8 -8 3 -21 -13z"/>
<path d="M8589 15643 c-12 -16 -12 -17 2 -6 9 7 20 9 24 5 5 -4 5 -1 1 6 -9
16 -11 15 -27 -5z"/>
<path d="M8240 15646 c0 -2 8 -10 18 -17 15 -13 16 -12 3 4 -13 16 -21 21 -21
13z"/>
<path d="M8436 15624 c-5 -14 -4 -15 9 -4 17 14 19 20 6 20 -5 0 -12 -7 -15
-16z"/>
<path d="M8839 15613 c-13 -16 -12 -17 4 -4 16 13 21 21 13 21 -2 0 -10 -8
-17 -17z"/>
<path d="M8283 15603 c0 -9 4 -10 14 -2 7 6 13 12 13 14 0 1 -6 2 -13 2 -8 0
-14 -6 -14 -14z"/>
<path d="M8677 15599 c7 -7 15 -10 18 -7 3 3 -2 9 -12 12 -14 6 -15 5 -6 -5z"/>
<path d="M8409 15583 c-13 -16 -12 -17 4 -4 9 7 17 15 17 17 0 8 -8 3 -21 -13z"/>
<path d="M8517 15578 c7 -8 11 -17 8 -19 -2 -3 5 -5 15 -5 25 0 25 0 -7 22
-20 13 -25 13 -16 2z"/>
<path d="M8931 15557 c-8 -10 -7 -14 2 -14 8 0 14 6 14 14 0 7 -1 13 -2 13 -2
0 -8 -6 -14 -13z"/>
<path d="M8379 15543 c-13 -16 -12 -17 4 -4 16 13 21 21 13 21 -2 0 -10 -8
-17 -17z"/>
<path d="M8580 15537 c0 -2 11 -12 24 -20 22 -15 25 -15 37 1 11 14 11 15 0 5
-11 -9 -19 -8 -37 4 -13 8 -24 13 -24 10z"/>
<path d="M8770 15529 c0 -5 5 -7 10 -4 6 3 10 8 10 11 0 2 -4 4 -10 4 -5 0
-10 -5 -10 -11z"/>
<path d="M8476 15491 c-3 -5 2 -15 12 -22 15 -12 16 -12 5 2 -7 9 -10 19 -6
22 3 4 4 7 0 7 -3 0 -8 -4 -11 -9z"/>
<path d="M8849 15478 c15 -21 31 -23 31 -6 0 6 -3 8 -7 5 -3 -4 -13 -1 -22 6
-14 11 -14 10 -2 -5z"/>
<path d="M8715 15451 c-3 -5 -2 -12 3 -15 5 -3 9 1 9 9 0 17 -3 19 -12 6z"/>
<path d="M8561 15431 c-8 -5 -9 -11 -3 -15 5 -3 12 1 16 9 6 17 6 18 -13 6z"/>
<path d="M8689 15413 c-13 -16 -12 -17 4 -4 16 13 21 21 13 21 -2 0 -10 -8
-17 -17z"/>
<path d="M8800 15380 c-12 -16 -19 -30 -16 -30 2 0 14 14 26 30 12 17 19 30
16 30 -2 0 -14 -13 -26 -30z"/>
<path d="M8629 15368 c11 -15 11 -21 0 -35 -13 -17 -13 -17 7 -1 16 14 23 15
34 5 12 -10 12 -9 1 5 -7 9 -9 23 -5 30 6 10 5 11 -7 1 -12 -10 -18 -10 -29 0
-12 10 -12 9 -1 -5z"/>
<path d="M9012 14888 c-16 -16 -15 -43 1 -56 6 -5 65 -27 130 -48 124 -41 149
-40 155 3 4 28 -9 36 -134 77 -123 40 -134 42 -152 24z"/>
<path d="M9860 14863 c-52 -13 -100 -29 -107 -35 -18 -14 -16 -43 2 -58 25
-21 244 37 258 67 12 28 -6 53 -37 52 -11 0 -64 -12 -116 -26z"/>
<path d="M9856 14649 c-24 -19 -26 -26 -26 -95 0 -87 17 -114 73 -114 43 0 67
26 74 79 16 117 -49 187 -121 130z"/>
<path d="M9125 14620 c-20 -22 -31 -103 -21 -145 15 -61 72 -82 120 -44 24 19
26 26 26 95 0 61 -4 78 -20 94 -26 26 -81 26 -105 0z"/>
<path d="M8749 14588 c-91 -70 -117 -190 -60 -280 30 -47 69 -80 116 -98 l28
-11 -6 53 c-4 29 -7 124 -7 211 0 178 0 179 -71 125z"/>
<path d="M9064 14319 c-25 -13 -54 -60 -54 -89 0 -33 36 -77 74 -90 76 -25
151 48 126 124 -18 54 -90 81 -146 55z"/>
<path d="M9964 14289 c-33 -17 -57 -65 -50 -103 17 -92 148 -110 191 -26 43
83 -54 171 -141 129z"/>
<path d="M9360 14054 c0 -66 67 -197 121 -237 38 -28 106 -32 149 -10 41 21
92 101 115 179 26 91 41 84 -185 84 -176 0 -200 -2 -200 -16z m323 -14 c53 0
63 -18 25 -44 -17 -12 -47 -16 -123 -15 -124 0 -175 9 -189 32 -20 31 10 39
129 33 61 -3 131 -6 158 -6z"/>
<path d="M9355 13533 c-8 -56 -18 -78 -52 -115 -22 -23 -24 -32 -18 -65 10
-56 62 -148 107 -188 30 -28 46 -35 78 -35 56 0 172 43 245 90 69 45 175 144
175 164 0 7 -9 21 -20 31 -17 15 -20 31 -20 93 0 72 -1 74 -22 68 -132 -37
-314 -37 -444 0 -19 5 -22 0 -29 -43z"/>
<path d="M12397 13438 c-3 -11 0 -33 8 -47 l13 -26 18 38 c16 33 16 39 4 47
-24 15 -37 12 -43 -12z"/>
<path d="M9068 13231 c-207 -135 -346 -357 -404 -643 -25 -125 -29 -427 -10
-713 32 -486 17 -859 -78 -1855 -47 -492 -45 -679 9 -727 l24 -22 -34 -478
c-19 -263 -41 -588 -50 -723 -8 -135 -20 -303 -25 -375 -5 -71 -13 -205 -16
-297 l-7 -167 26 -10 c109 -42 421 -62 627 -41 148 14 149 15 159 26 5 5 30
178 56 384 92 747 103 805 147 798 65 -9 161 -285 323 -926 36 -145 71 -275
77 -288 6 -14 22 -27 36 -31 38 -9 430 4 497 17 76 15 176 45 215 65 26 13 30
21 30 57 0 51 -33 397 -115 1227 l-64 643 33 42 c51 62 61 108 59 291 -1 186
-11 272 -98 880 -74 518 -90 678 -82 819 6 119 45 313 126 635 l60 234 -35 41
c-60 69 -119 207 -178 416 -67 237 -119 375 -176 471 -48 82 -145 182 -218
227 l-49 30 -34 -32 c-163 -150 -405 -232 -524 -177 -55 25 -135 114 -171 188
-17 38 -35 62 -45 62 -9 1 -50 -21 -91 -48z m-136 -595 c42 -31 50 -130 18
-200 -46 -97 -156 -83 -173 21 -8 50 9 121 39 160 20 27 32 33 62 33 20 0 45
-6 54 -14z m23 -326 c0 -25 -1 -25 -93 -28 -76 -2 -93 0 -98 13 -3 8 -3 22 0
30 5 13 22 15 98 13 92 -3 93 -3 93 -28z m1577 -4522 c33 -37 42 -79 36 -150
-4 -40 -12 -57 -32 -75 -33 -28 -56 -29 -90 -2 -74 58 -84 198 -19 249 35 27
69 20 105 -22z m48 -313 c0 -25 -1 -25 -89 -25 -90 0 -108 7 -97 35 4 12 26
15 96 15 89 0 90 0 90 -25z"/>
<path d="M8841 12574 c-27 -35 -28 -94 -2 -118 19 -17 21 -17 45 1 32 23 44
77 25 112 -20 35 -43 37 -68 5z m64 -27 c14 -53 -30 -98 -63 -65 -15 15 -15
29 -2 62 13 35 57 36 65 3z"/>
<path d="M10447 7762 c-40 -44 -4 -157 46 -150 50 7 61 104 16 149 -24 24 -41
24 -62 1z m58 -71 c0 -24 -5 -46 -11 -48 -19 -6 -44 26 -44 56 0 34 8 43 35
39 17 -3 20 -10 20 -47z"/>
<path d="M7685 4261 c-117 -28 -186 -154 -202 -364 l-6 -88 -26 47 c-26 48
-62 77 -113 89 -22 6 -33 1 -58 -23 -24 -25 -30 -39 -30 -74 0 -43 37 -139 59
-152 29 -18 0 -24 -134 -28 -144 -4 -144 -4 -220 -43 -92 -46 -165 -121 -209
-215 -29 -60 -31 -73 -31 -175 0 -103 2 -114 32 -178 58 -123 173 -216 303
-246 30 -7 734 -11 2152 -11 l2106 0 11 53 c23 105 54 168 112 228 47 49 62
58 103 64 104 16 212 -15 285 -81 63 -56 83 -146 55 -246 -5 -16 5 -18 120
-18 69 0 149 5 178 11 127 25 248 120 308 242 28 57 33 80 37 160 4 75 1 103
-16 151 -53 149 -163 254 -306 292 -39 11 -179 14 -632 14 l-583 0 0 -25 c0
-31 -1 -31 -51 1 -59 37 -127 42 -181 14 -23 -12 -56 -33 -73 -47 l-30 -26 -8
42 -8 41 -909 0 c-554 0 -911 4 -915 9 -3 6 -29 -1 -60 -15 -64 -30 -151 -34
-207 -10 -29 12 -75 16 -207 16 l-170 0 24 49 c33 66 34 144 2 192 -42 63
-109 64 -196 4 -28 -20 -51 -32 -51 -28 0 5 9 32 20 61 60 156 -8 275 -178
311 -58 12 -54 12 -97 2z m1188 -903 c-8 -46 -41 -110 -65 -129 -18 -14 -43
-16 -177 -11 -124 4 -177 1 -261 -14 -77 -13 -156 -18 -295 -19 -222 0 -276
10 -295 56 -13 31 -6 99 10 99 6 0 10 -4 10 -9 0 -5 21 -19 47 -31 63 -29 158
-28 388 5 151 21 208 25 366 23 l187 -3 43 32 c24 18 45 32 46 33 1 0 0 -15
-4 -32z m1859 -39 c116 -28 398 -13 398 22 0 5 5 9 10 9 13 0 13 -43 -1 -74
-20 -43 -59 -51 -244 -51 -139 0 -176 3 -200 17 -46 25 -66 52 -72 99 l-6 44
31 -27 c17 -14 55 -32 84 -39z"/>
<path d="M13422 2895 c-485 -74 -838 -323 -879 -620 l-6 -45 -2888 0 -2888 0
-7 35 c-9 51 -72 143 -137 201 -104 92 -303 175 -492 204 -113 18 -322 16
-429 -4 -207 -39 -375 -115 -484 -219 -60 -59 -122 -158 -122 -199 0 -17 -17
-18 -337 -19 l-338 0 59 -19 c114 -36 205 -119 257 -236 18 -40 23 -68 23
-149 1 -92 -2 -105 -30 -165 -53 -112 -128 -180 -240 -219 l-59 -20 1638 -1
1639 0 -7 -40 c-25 -145 125 -295 355 -354 88 -23 248 -31 340 -17 276 42 450
183 438 352 l-4 59 3295 1 c1813 1 3281 4 3264 9 -106 25 -223 123 -271 227
-35 77 -43 205 -17 284 44 138 147 236 285 275 39 10 4 12 -251 13 l-295 1
-12 60 c-43 232 -292 449 -631 549 -166 49 -258 62 -476 66 -140 3 -228 0
-293 -10z m656 -165 c97 -27 157 -58 219 -114 95 -85 118 -182 67 -284 -42
-85 -134 -151 -269 -194 -85 -28 -304 -35 -403 -14 -88 18 -202 71 -259 120
-80 70 -114 186 -79 271 46 108 206 207 385 235 85 14 255 3 339 -20z m-8149
-175 c184 -44 286 -168 234 -286 -36 -80 -117 -135 -240 -163 -275 -62 -553
77 -519 259 17 86 141 173 286 198 58 10 179 6 239 -8z m329 -510 c88 -27 119
-96 65 -147 -40 -37 -95 -51 -169 -45 -163 13 -193 145 -44 194 49 16 88 16
148 -2z m7186 -1 c26 -9 62 -31 81 -49 28 -26 35 -40 35 -71 0 -79 -76 -134
-195 -142 -100 -6 -164 11 -217 58 -37 32 -43 43 -43 78 0 58 50 107 135 133
44 13 155 10 204 -7z m-4931 -457 c128 -63 131 -189 5 -253 -72 -36 -200 -45
-282 -19 -78 25 -136 77 -142 130 -13 104 108 179 277 172 69 -2 97 -8 142
-30z m-343 -336 c78 -56 -15 -141 -120 -111 -44 12 -54 20 -68 46 -37 70 110
121 188 65z"/>
</g>
</svg>
